<svg width="551" height="706" viewBox="0 0 551 706" fill="none" xmlns="http://www.w3.org/2000/svg">
<g clip-path="url(#clip0)">
<path d="M268.205 18.8253H267.566V17.7085H268.045C268.13 17.7085 268.211 17.6749 268.271 17.6151C268.331 17.5552 268.364 17.4741 268.364 17.3894V11.6461C268.364 11.5615 268.331 11.4803 268.271 11.4205C268.211 11.3607 268.13 11.3271 268.045 11.3271H267.566V8.06535C267.566 7.15285 267.387 6.24927 267.037 5.40623C266.688 4.56318 266.176 3.79717 265.53 3.15193C264.885 2.5067 264.119 1.99487 263.275 1.64567C262.432 1.29647 261.528 1.11675 260.615 1.11675H259.906V0.319072C259.906 0.234449 259.872 0.153292 259.812 0.0934539C259.752 0.0336163 259.671 0 259.587 0H253.841C253.756 0 253.675 0.0336163 253.615 0.0934539C253.555 0.153292 253.522 0.234449 253.522 0.319072V1.11675H149.713C148.8 1.11675 147.896 1.29647 147.053 1.64567C146.209 1.99487 145.443 2.5067 144.797 3.15193C144.152 3.79717 143.64 4.56318 143.291 5.40623C142.941 6.24927 142.761 7.15285 142.761 8.06535V155.938C142.761 156.85 142.941 157.754 143.291 158.597C143.64 159.44 144.152 160.206 144.797 160.851C145.443 161.496 146.209 162.008 147.053 162.357C147.896 162.707 148.8 162.886 149.713 162.886H260.615C261.528 162.886 262.432 162.707 263.275 162.357C264.119 162.008 264.885 161.496 265.53 160.851C266.176 160.206 266.688 159.44 267.037 158.597C267.387 157.754 267.566 156.85 267.566 155.938V25.2067H268.205C268.289 25.2067 268.371 25.1731 268.43 25.1132C268.49 25.0534 268.524 24.9722 268.524 24.8876V19.1443C268.524 19.0597 268.49 18.9785 268.43 18.9187C268.371 18.8589 268.289 18.8253 268.205 18.8253Z" fill="#3F3D56"/>
<path d="M262.779 5.6619H148.506V157.224H262.779V5.6619Z" fill="#F2F2F2"/>
<path d="M128.676 269.461C129.74 305.876 108.454 319.221 81.7419 320.001C81.1214 320.019 80.5037 320.03 79.8888 320.034C78.65 320.044 77.4232 320.023 76.2085 319.973C52.0497 318.97 32.9265 306.151 31.9371 272.285C30.9132 237.238 74.431 191.7 77.696 188.332C77.6989 188.332 77.6989 188.332 77.7018 188.329C77.8259 188.201 77.8894 188.136 77.8894 188.136C77.8894 188.136 127.612 233.048 128.676 269.461Z" fill="#FB726A"/>
<path d="M79.8187 314.482L96.7874 289.258L79.8534 317.196L79.8888 320.034C78.65 320.044 77.4232 320.023 76.2085 319.973L77.0501 283.487L77.0271 283.205L77.0581 283.151L77.1387 279.703L58.5559 252.734L77.1167 277.123L77.1826 277.852L77.8183 250.285L61.7678 222.324L77.864 245.443L77.696 188.332L77.6964 188.142L77.7018 188.329L78.7673 233.34L93.3954 215.056L78.8152 237.217L79.1344 261.875L92.5953 237.81L79.1839 265.5L79.3616 279.211L98.9374 245.689L79.4211 283.994L79.8187 314.482Z" fill="#3F3D56"/>
<path d="M411.285 50.4224H410.579V31.0716C410.579 29.6008 410.289 28.1444 409.726 26.7856C409.163 25.4268 408.338 24.1922 407.297 23.1522C406.257 22.1122 405.022 21.2872 403.662 20.7244C402.303 20.1615 400.846 19.8719 399.375 19.8719H358.362C356.89 19.8719 355.433 20.1615 354.074 20.7244C352.715 21.2872 351.48 22.1122 350.439 23.1522C349.399 24.1922 348.574 25.4268 348.011 26.7856C347.447 28.1444 347.158 29.6008 347.158 31.0716V137.232C347.158 138.702 347.447 140.159 348.011 141.518C348.574 142.876 349.399 144.111 350.439 145.151C351.48 146.191 352.715 147.016 354.074 147.579C355.433 148.142 356.89 148.431 358.362 148.431H399.375C400.846 148.431 402.303 148.142 403.662 147.579C405.022 147.016 406.257 146.191 407.297 145.151C408.338 144.111 409.163 142.876 409.726 141.518C410.289 140.159 410.579 138.702 410.579 137.232V64.1966H411.285V50.4224Z" fill="#3F3D56"/>
<path d="M408.193 31.7298V137.735C408.193 139.953 407.312 142.081 405.743 143.65C404.174 145.219 402.046 146.1 399.827 146.101H358.616C356.397 146.1 354.269 145.219 352.7 143.65C351.131 142.081 350.25 139.953 350.25 137.735V31.7298C350.25 29.512 351.132 27.3851 352.701 25.8168C354.27 24.2486 356.397 23.3675 358.616 23.3672H363.616C363.37 23.9706 363.276 24.6251 363.343 25.2732C363.409 25.9214 363.634 26.5432 363.998 27.0839C364.362 27.6246 364.853 28.0676 365.428 28.3739C366.003 28.6802 366.645 28.8404 367.297 28.8403H390.793C391.445 28.8404 392.086 28.6802 392.662 28.3739C393.237 28.0676 393.728 27.6246 394.092 27.0839C394.455 26.5432 394.68 25.9214 394.747 25.2732C394.814 24.6251 394.72 23.9706 394.474 23.3672H399.827C402.046 23.3675 404.173 24.2486 405.742 25.8168C407.311 27.3851 408.193 29.512 408.193 31.7298Z" fill="#F2F2F2"/>
<path d="M402.151 37.4615H367.333V38.7547H402.151V37.4615Z" fill="#CCCCCC"/>
<path d="M402.151 41.5568H367.333V42.8501H402.151V41.5568Z" fill="#CCCCCC"/>
<path d="M402.151 45.6521H367.333V46.9454H402.151V45.6521Z" fill="#CCCCCC"/>
<path d="M364.181 38.2607H356.292V46.1461H364.181V38.2607Z" fill="#CCCCCC"/>
<path d="M402.151 129.455H367.333V130.749H402.151V129.455Z" fill="#CCCCCC"/>
<path d="M402.151 133.551H367.333V134.844H402.151V133.551Z" fill="#CCCCCC"/>
<path d="M402.151 137.646H367.333V138.939H402.151V137.646Z" fill="#CCCCCC"/>
<path d="M364.181 130.255H356.292V138.14H364.181V130.255Z" fill="#CCCCCC"/>
<path d="M398.433 180.464H299.421V178.424H254.524V180.464H155.104C154.224 180.464 153.353 180.637 152.541 180.973C151.728 181.31 150.99 181.803 150.368 182.425C149.746 183.046 149.253 183.784 148.916 184.597C148.579 185.409 148.406 186.279 148.406 187.159V322.686C148.406 324.461 149.112 326.164 150.368 327.42C151.624 328.675 153.327 329.381 155.104 329.381H398.433C400.21 329.381 401.913 328.675 403.169 327.42C404.425 326.164 405.131 324.461 405.131 322.686V187.159C405.131 186.279 404.958 185.409 404.621 184.597C404.285 183.784 403.791 183.046 403.169 182.425C402.547 181.803 401.809 181.31 400.996 180.973C400.184 180.637 399.313 180.464 398.433 180.464Z" fill="#3F3D56"/>
<path d="M396.152 192.296H157.385V326.933H396.152V192.296Z" fill="#F2F2F2"/>
<path d="M276.564 188.624C277.917 188.624 279.013 187.528 279.013 186.176C279.013 184.824 277.917 183.728 276.564 183.728C275.212 183.728 274.116 184.824 274.116 186.176C274.116 187.528 275.212 188.624 276.564 188.624Z" fill="#FB726A"/>
<path d="M411.835 324.485H388.533V322.806C388.533 322.763 388.524 322.719 388.507 322.679C388.491 322.639 388.466 322.602 388.435 322.571C388.404 322.54 388.368 322.516 388.327 322.499C388.287 322.482 388.244 322.474 388.2 322.474H380.211C380.167 322.474 380.124 322.482 380.083 322.499C380.043 322.516 380.006 322.54 379.975 322.571C379.944 322.602 379.92 322.639 379.903 322.679C379.886 322.719 379.878 322.763 379.878 322.806V324.485H374.884V322.806C374.884 322.763 374.876 322.719 374.859 322.679C374.842 322.639 374.818 322.602 374.787 322.571C374.756 322.54 374.719 322.516 374.679 322.499C374.639 322.482 374.595 322.474 374.552 322.474H366.562C366.519 322.474 366.475 322.482 366.435 322.499C366.395 322.516 366.358 322.54 366.327 322.571C366.296 322.602 366.272 322.639 366.255 322.679C366.238 322.719 366.229 322.763 366.229 322.806V324.485H361.236V322.806C361.236 322.763 361.228 322.719 361.211 322.679C361.194 322.639 361.17 322.602 361.139 322.571C361.108 322.54 361.071 322.516 361.031 322.499C360.99 322.482 360.947 322.474 360.903 322.474H352.914C352.87 322.474 352.827 322.482 352.787 322.499C352.746 322.516 352.71 322.54 352.679 322.571C352.648 322.602 352.623 322.639 352.606 322.679C352.59 322.719 352.581 322.763 352.581 322.806V324.485H347.588V322.806C347.588 322.763 347.579 322.719 347.562 322.679C347.546 322.639 347.521 322.602 347.49 322.571C347.459 322.54 347.423 322.516 347.382 322.499C347.342 322.482 347.299 322.474 347.255 322.474H339.266C339.222 322.474 339.179 322.482 339.138 322.499C339.098 322.516 339.061 322.54 339.03 322.571C338.999 322.602 338.975 322.639 338.958 322.679C338.941 322.719 338.933 322.763 338.933 322.806V324.485H333.94V322.806C333.94 322.763 333.931 322.719 333.914 322.679C333.897 322.639 333.873 322.602 333.842 322.571C333.811 322.54 333.774 322.516 333.734 322.499C333.694 322.482 333.65 322.474 333.607 322.474H325.617C325.574 322.474 325.53 322.482 325.49 322.499C325.45 322.516 325.413 322.54 325.382 322.571C325.351 322.602 325.327 322.639 325.31 322.679C325.293 322.719 325.284 322.763 325.284 322.806V324.485H320.291V322.806C320.291 322.763 320.283 322.719 320.266 322.679C320.249 322.639 320.225 322.602 320.194 322.571C320.163 322.54 320.126 322.516 320.086 322.499C320.045 322.482 320.002 322.474 319.958 322.474H311.969C311.925 322.474 311.882 322.482 311.842 322.499C311.801 322.516 311.765 322.54 311.734 322.571C311.703 322.602 311.678 322.639 311.661 322.679C311.645 322.719 311.636 322.763 311.636 322.806V324.485H306.643V322.806C306.643 322.763 306.634 322.719 306.617 322.679C306.601 322.639 306.576 322.602 306.545 322.571C306.514 322.54 306.478 322.516 306.437 322.499C306.397 322.482 306.354 322.474 306.31 322.474H243.727C243.684 322.474 243.64 322.482 243.6 322.499C243.56 322.516 243.523 322.54 243.492 322.571C243.461 322.602 243.437 322.639 243.42 322.679C243.403 322.719 243.394 322.763 243.394 322.806V324.485H238.401V322.806C238.401 322.763 238.393 322.719 238.376 322.679C238.359 322.639 238.335 322.602 238.304 322.571C238.273 322.54 238.236 322.516 238.196 322.499C238.155 322.482 238.112 322.474 238.068 322.474H230.079C230.035 322.474 229.992 322.482 229.952 322.499C229.911 322.516 229.875 322.54 229.844 322.571C229.813 322.602 229.788 322.639 229.771 322.679C229.755 322.719 229.746 322.763 229.746 322.806V324.485H224.753V322.806C224.753 322.763 224.744 322.719 224.727 322.679C224.711 322.639 224.686 322.602 224.655 322.571C224.624 322.54 224.588 322.516 224.547 322.499C224.507 322.482 224.464 322.474 224.42 322.474H216.431C216.387 322.474 216.344 322.482 216.303 322.499C216.263 322.516 216.226 322.54 216.195 322.571C216.164 322.602 216.14 322.639 216.123 322.679C216.106 322.719 216.098 322.763 216.098 322.806V324.485H211.104V322.806C211.104 322.763 211.096 322.719 211.079 322.679C211.062 322.639 211.038 322.602 211.007 322.571C210.976 322.54 210.939 322.516 210.899 322.499C210.859 322.482 210.815 322.474 210.772 322.474H202.782C202.739 322.474 202.695 322.482 202.655 322.499C202.615 322.516 202.578 322.54 202.547 322.571C202.516 322.602 202.492 322.639 202.475 322.679C202.458 322.719 202.449 322.763 202.449 322.806V324.485H197.456V322.806C197.456 322.763 197.448 322.719 197.431 322.679C197.414 322.639 197.39 322.602 197.359 322.571C197.328 322.54 197.291 322.516 197.251 322.499C197.21 322.482 197.167 322.474 197.123 322.474H189.134C189.09 322.474 189.047 322.482 189.007 322.499C188.966 322.516 188.93 322.54 188.899 322.571C188.868 322.602 188.843 322.639 188.826 322.679C188.81 322.719 188.801 322.763 188.801 322.806V324.485H183.808V322.806C183.808 322.763 183.799 322.719 183.783 322.679C183.766 322.639 183.741 322.602 183.71 322.571C183.679 322.54 183.643 322.516 183.602 322.499C183.562 322.482 183.519 322.474 183.475 322.474H175.486C175.442 322.474 175.399 322.482 175.358 322.499C175.318 322.516 175.281 322.54 175.25 322.571C175.219 322.602 175.195 322.639 175.178 322.679C175.161 322.719 175.153 322.763 175.153 322.806V324.485H170.16V322.806C170.16 322.763 170.151 322.719 170.134 322.679C170.117 322.639 170.093 322.602 170.062 322.571C170.031 322.54 169.994 322.516 169.954 322.499C169.914 322.482 169.87 322.474 169.827 322.474H161.837C161.794 322.474 161.75 322.482 161.71 322.499C161.67 322.516 161.633 322.54 161.602 322.571C161.571 322.602 161.547 322.639 161.53 322.679C161.513 322.719 161.504 322.763 161.504 322.806V324.485H146.192C144.073 324.485 142.041 325.326 140.542 326.824C139.044 328.322 138.202 330.353 138.202 332.471V336.082C138.202 338.2 139.044 340.231 140.542 341.729C142.041 343.227 144.073 344.068 146.192 344.068H411.835C413.954 344.068 415.986 343.227 417.484 341.729C418.982 340.231 419.824 338.2 419.824 336.082V332.471C419.824 331.422 419.618 330.384 419.216 329.415C418.815 328.446 418.226 327.565 417.484 326.824C416.742 326.082 415.862 325.494 414.892 325.093C413.923 324.691 412.884 324.485 411.835 324.485Z" fill="#3F3D56"/>
<path d="M320.693 202.84H253.692V205.329H320.693V202.84Z" fill="#E6E6E6"/>
<path d="M320.693 210.721H253.692V213.21H320.693V210.721Z" fill="#E6E6E6"/>
<path d="M320.693 218.602H253.692V221.091H320.693V218.602Z" fill="#E6E6E6"/>
<path d="M320.693 202.84H253.692V205.329H320.693V202.84Z" fill="#CCCCCC"/>
<path d="M320.693 210.721H253.692V213.21H320.693V210.721Z" fill="#CCCCCC"/>
<path d="M320.693 218.602H253.692V221.091H320.693V218.602Z" fill="#CCCCCC"/>
<path d="M247.625 204.378H232.445V219.553H247.625V204.378Z" fill="#CCCCCC"/>
<path d="M320.693 291.515H253.692V294.004H320.693V291.515Z" fill="#CCCCCC"/>
<path d="M320.693 299.396H253.692V301.885H320.693V299.396Z" fill="#CCCCCC"/>
<path d="M320.693 307.277H253.692V309.765H320.693V307.277Z" fill="#CCCCCC"/>
<path d="M247.625 293.053H232.445V308.227H247.625V293.053Z" fill="#CCCCCC"/>
<path d="M438.454 146.549C434.518 142.263 429.222 139.469 423.461 138.64L425.927 136.413L423.199 136.276L419.824 139.325L422.875 142.699L425.602 142.837L423.559 140.577C429.369 141.515 434.614 144.606 438.247 149.235C441.881 153.864 443.637 159.691 443.166 165.556C442.695 171.421 440.032 176.894 435.706 180.884C431.381 184.875 425.71 187.09 419.824 187.09V188.987C424.741 188.986 429.552 187.555 433.668 184.867C437.785 182.179 441.029 178.351 443.005 173.85C444.98 169.349 445.602 164.371 444.794 159.523C443.986 154.674 441.783 150.166 438.454 146.549Z" fill="#3F3D56"/>
<path d="M110.875 146.549C114.811 142.263 120.108 139.469 125.868 138.64L123.402 136.413L126.13 136.276L129.505 139.325L126.455 142.699L123.727 142.837L125.771 140.577C119.96 141.515 114.716 144.606 111.082 149.235C107.449 153.864 105.692 159.691 106.163 165.556C106.634 171.421 109.298 176.894 113.623 180.884C117.949 184.875 123.619 187.09 129.505 187.09V188.987C124.588 188.986 119.778 187.555 115.661 184.867C111.545 182.179 108.3 178.351 106.325 173.85C104.349 169.349 103.727 164.371 104.535 159.523C105.343 154.674 107.546 150.166 110.875 146.549Z" fill="#3F3D56"/>
<path d="M249.767 13.162H182.765V15.6507H249.767V13.162Z" fill="#CCCCCC"/>
<path d="M249.767 21.0429H182.765V23.5316H249.767V21.0429Z" fill="#CCCCCC"/>
<path d="M249.767 28.9237H182.765V31.4124H249.767V28.9237Z" fill="#CCCCCC"/>
<path d="M176.699 14.7001H161.519V29.8743H176.699V14.7001Z" fill="#CCCCCC"/>
<path d="M249.536 131.237H182.535V133.726H249.536V131.237Z" fill="#CCCCCC"/>
<path d="M249.536 139.118H182.535V141.606H249.536V139.118Z" fill="#CCCCCC"/>
<path d="M249.536 146.998H182.535V149.487H249.536V146.998Z" fill="#CCCCCC"/>
<path d="M176.468 132.775H161.288V147.949H176.468V132.775Z" fill="#CCCCCC"/>
<path d="M458.501 155.499L473.631 133.541C473.631 133.541 486.806 122.981 483.03 120.925C479.254 118.869 469.367 128.509 469.367 128.509C469.367 128.509 440.846 150.366 445.549 153.416C450.252 156.467 458.501 155.499 458.501 155.499Z" fill="#FFB8B8"/>
<path d="M460.7 126.663H480.293C481.631 118.936 481.631 111.037 480.293 103.311H460.7C462.907 110.938 462.907 119.035 460.7 126.663Z" fill="#FB726A"/>
<path d="M511.641 127.777C505.753 117.832 494.104 117.369 494.104 117.369C494.104 117.369 482.752 115.917 475.47 131.064C468.683 145.182 459.316 158.813 473.962 162.118L476.608 153.887L478.246 162.731C480.332 162.881 482.424 162.917 484.513 162.838C500.198 162.332 515.136 162.986 514.655 157.36C514.016 149.881 517.306 137.347 511.641 127.777Z" fill="#2F2E41"/>
<path d="M480.334 189.081L472.792 206.423L499.191 210.57C499.191 210.57 511.636 193.605 512.768 192.474L480.334 189.081Z" fill="#FFB8B8"/>
<path d="M492.78 151.382C500.486 151.382 506.734 145.137 506.734 137.434C506.734 129.73 500.486 123.485 492.78 123.485C485.073 123.485 478.826 129.73 478.826 137.434C478.826 145.137 485.073 151.382 492.78 151.382Z" fill="#FFB8B8"/>
<path d="M489.385 147.612C489.385 147.612 495.797 161.938 495.042 163.446C494.288 164.954 508.619 155.529 508.619 155.529C508.619 155.529 502.585 145.351 502.962 143.843L489.385 147.612Z" fill="#FFB8B8"/>
<path d="M510.505 153.644C510.505 153.644 521.819 147.235 528.23 164.954C528.23 164.954 549.35 189.835 545.578 194.359C541.807 198.883 527.476 183.426 527.476 183.426L518.425 174.002C518.425 174.002 505.602 170.609 506.734 163.446C507.865 156.283 510.505 153.644 510.505 153.644Z" fill="#FFB8B8"/>
<path d="M484.106 162.315L457.706 154.775C457.706 154.775 443.752 149.12 444.129 152.513C444.506 155.906 469.775 175.133 478.071 174.002C486.368 172.871 484.106 162.315 484.106 162.315Z" fill="#FFB8B8"/>
<path d="M499.191 159.676C499.191 159.676 490.517 158.545 488.631 160.43C486.746 162.315 483.163 160.619 483.163 160.619L477.129 171.551C477.129 171.551 472.791 177.772 476.186 183.803C479.58 189.835 474.677 197.752 474.677 197.752C474.677 197.752 501.831 197.752 507.488 200.768C513.145 203.784 519.963 175.603 519.963 175.603C519.963 175.603 512.956 167.027 514.842 161.75C516.728 156.472 515.596 152.325 515.596 152.325L507.299 153.079L499.191 159.676Z" fill="#D0CDE1"/>
<path d="M466.757 326.306L469.775 355.334L481.466 349.302L477.694 324.044L466.757 326.306Z" fill="#FFB8B8"/>
<path d="M510.882 325.929L520.7 352.171L530.128 345.385L518.425 319.897L510.882 325.929Z" fill="#FFB8B8"/>
<path d="M481.466 339.5C480.873 341.625 479.984 343.655 478.826 345.532C476.94 348.548 472.414 347.04 472.414 347.04C472.414 347.04 467.134 342.893 466.003 344.778C464.872 346.663 458.838 356.088 458.838 356.088C458.838 356.088 438.849 372.675 455.82 375.314C472.791 377.953 476.186 365.513 476.186 365.513C476.186 365.513 489.008 360.989 489.385 356.465C489.763 351.941 481.466 339.5 481.466 339.5Z" fill="#2F2E41"/>
<path d="M521.065 344.996C521.065 344.996 515.031 343.111 515.408 346.127C515.785 349.143 518.048 361.207 518.048 361.207C518.048 361.207 513.899 378.171 525.59 375.155C537.281 372.14 537.659 355.929 537.659 355.929C537.659 355.929 543.693 334.441 539.167 334.064C534.641 333.687 523.705 332.556 523.705 332.556C523.705 332.556 530.493 343.488 521.065 344.996Z" fill="#2F2E41"/>
<path d="M509.038 126.818L497.529 120.792L481.636 123.258L478.348 137.775L486.533 137.46L488.82 132.127V137.373L492.597 137.227L494.789 128.736L496.159 137.775L509.586 137.501L509.038 126.818Z" fill="#2F2E41"/>
<path d="M503.339 209.439L471.66 202.276C471.66 202.276 455.82 229.419 453.558 252.039C451.295 274.658 441.112 328.945 457.329 329.699C473.546 330.453 482.974 330.453 483.728 328.945C484.483 327.437 475.809 267.872 475.809 267.872C475.809 267.872 494.288 341.008 504.471 336.107C514.653 331.207 525.967 324.798 525.59 321.028C525.213 317.258 500.699 277.297 500.699 277.297L504.094 242.614C504.094 242.614 508.242 228.665 501.077 215.848L503.339 209.439Z" fill="#2F2E41"/>
<path d="M480.508 200.014H500.101C501.439 192.287 501.439 184.389 500.101 176.662H480.508C482.715 184.29 482.715 192.386 480.508 200.014Z" fill="#FB726A"/>
<path d="M537.659 183.05L504.471 182.296C504.471 182.296 489.763 170.986 489.385 177.772C489.008 184.557 504.848 188.327 504.848 188.327C504.848 188.327 538.9 200.542 544.125 195.189L537.659 183.05Z" fill="#FFB8B8"/>
<path d="M178.301 93.8411C184.553 93.8411 189.622 88.7747 189.622 82.525C189.622 76.2753 184.553 71.209 178.301 71.209C172.049 71.209 166.981 76.2753 166.981 82.525C166.981 88.7747 172.049 93.8411 178.301 93.8411Z" fill="#FB726A"/>
<path d="M208.489 91.7718C213.598 91.7718 217.739 87.6319 217.739 82.525C217.739 77.4181 213.598 73.2782 208.489 73.2782C203.38 73.2782 199.239 77.4181 199.239 82.525C199.239 87.6319 203.38 91.7718 208.489 91.7718Z" fill="#FB726A"/>
<path d="M238.677 88.1507C241.785 88.1507 244.304 85.632 244.304 82.525C244.304 79.4181 241.785 76.8994 238.677 76.8994C235.568 76.8994 233.049 79.4181 233.049 82.525C233.049 85.632 235.568 88.1507 238.677 88.1507Z" fill="#FB726A"/>
<path d="M364.786 89.8871C368.07 89.8871 370.733 87.2255 370.733 83.9423C370.733 80.6591 368.07 77.9976 364.786 77.9976C361.501 77.9976 358.839 80.6591 358.839 83.9423C358.839 87.2255 361.501 89.8871 364.786 89.8871Z" fill="#FB726A"/>
<path d="M380.645 88.6687C383.256 88.6687 385.373 86.5526 385.373 83.9423C385.373 81.332 383.256 79.2159 380.645 79.2159C378.033 79.2159 375.917 81.332 375.917 83.9423C375.917 86.5526 378.033 88.6687 380.645 88.6687Z" fill="#FB726A"/>
<path d="M396.503 87.0419C398.216 87.0419 399.604 85.6542 399.604 83.9423C399.604 82.2305 398.216 80.8427 396.503 80.8427C394.791 80.8427 393.403 82.2305 393.403 83.9423C393.403 85.6542 394.791 87.0419 396.503 87.0419Z" fill="#FB726A"/>
<path d="M276.562 281.687C291.234 281.687 303.127 269.798 303.127 255.132C303.127 240.466 291.234 228.577 276.562 228.577C261.891 228.577 249.997 240.466 249.997 255.132C249.997 269.798 261.891 281.687 276.562 281.687Z" fill="#FB726A"/>
<path d="M286.445 260.972L276.536 240.967L266.679 260.998L272.249 260.991V269.298H280.871V260.979L286.445 260.972Z" fill="#D0CDE1"/>
</g>
<g clip-path="url(#clip1)">
<path d="M383.103 524.707L386.222 523.486C386.521 523.368 386.815 523.241 387.128 523.119C381.356 520.995 376.479 516.97 373.298 511.707C370.118 506.444 368.824 500.256 369.629 494.161C370.434 488.065 373.29 482.425 377.727 478.167C382.164 473.909 387.919 471.287 394.045 470.732L391.872 481.683L400.12 470.859H400.192C407.312 471.838 413.751 475.603 418.094 481.326C422.437 487.05 424.328 494.263 423.351 501.381C423.283 501.892 423.175 502.39 423.08 502.892C425.619 500.887 428 498.675 429.784 496.104C433.405 490.882 434.632 484.448 435.881 476.57C438.357 460.967 440.589 445.193 442.599 429.428C436.427 427.566 431.122 423.565 427.637 418.144C424.152 412.723 422.716 406.237 423.587 399.852C423.7 399.028 423.858 398.227 424.039 397.435C424.084 397.236 424.13 397.037 424.18 396.843C424.374 396.078 424.591 395.327 424.845 394.58C424.886 394.458 424.94 394.345 424.981 394.227C425.207 393.607 425.433 392.996 425.728 392.417C425.827 392.191 425.927 391.965 426.031 391.752C426.343 391.105 426.674 390.471 427.036 389.856C427.158 389.652 427.289 389.458 427.412 389.254C427.692 388.802 427.987 388.349 428.29 387.928C428.453 387.702 428.611 387.476 428.779 387.254L428.901 387.078C432.745 382.049 438.23 378.525 444.403 377.12C450.575 375.715 457.046 376.516 462.689 379.385L459.864 393.634L468.012 382.937C472.395 386.649 475.476 391.664 476.805 397.25C478.134 402.837 477.642 408.701 475.4 413.988H475.432C475.355 414.169 475.26 414.341 475.183 414.522C475.033 414.857 474.88 415.187 474.73 415.518C474.522 415.938 474.278 416.35 474.074 416.757C473.902 417.065 473.734 417.373 473.549 417.662C473.282 418.115 472.992 418.522 472.702 418.943C472.53 419.187 472.372 419.441 472.195 419.681C471.743 420.31 471.236 420.911 470.719 421.491C470.538 421.694 470.344 421.88 470.154 422.079C469.787 422.468 469.42 422.853 469.031 423.219C468.791 423.445 468.538 423.672 468.289 423.88C467.931 424.197 467.564 424.504 467.189 424.785C466.921 424.998 466.65 425.201 466.378 425.4C465.984 425.685 465.586 425.952 465.183 426.219C464.912 426.396 464.64 426.572 464.364 426.74C463.911 427.016 463.436 427.269 462.961 427.518C462.721 427.64 462.508 427.776 462.241 427.894C461.526 428.242 460.792 428.563 460.045 428.848C459.905 428.903 459.756 428.943 459.615 428.993C458.991 429.219 458.361 429.446 457.723 429.604C457.447 429.681 457.166 429.744 456.886 429.812C456.365 429.939 455.84 430.057 455.31 430.156C455.008 430.21 454.696 430.26 454.373 430.305C453.853 430.382 453.328 430.441 452.798 430.486C452.486 430.514 452.178 430.541 451.861 430.559C451.29 430.586 450.716 430.591 450.141 430.586C450.103 430.584 450.065 430.584 450.028 430.586C449.176 437.223 448.283 443.86 447.348 450.496C449.543 447.534 452.321 445.051 455.51 443.199C458.7 441.348 462.234 440.168 465.896 439.73C469.558 439.293 473.271 439.608 476.807 440.657C480.343 441.705 483.628 443.464 486.459 445.826L479.361 457.854L490.773 450.347C495.088 456.056 496.96 463.242 495.979 470.33C495.644 472.818 494.958 475.247 493.942 477.543C491.763 482.514 488.14 486.717 483.543 489.604C478.946 492.492 473.586 493.931 468.16 493.736C462.734 493.541 457.491 491.72 453.114 488.51C448.736 485.299 445.424 480.848 443.609 475.733C443.504 476.402 443.405 477.09 443.301 477.751C442.196 484.697 440.825 493.344 435.954 500.376C432.654 505.155 428.109 508.684 423.691 511.788C420.818 513.809 417.878 515.736 414.872 517.567C411.717 520.491 407.911 522.623 403.768 523.784C398.94 526.255 394.007 528.489 388.97 530.486L385.824 531.717C382.995 532.821 380.098 533.952 377.223 535.156C377.676 535.196 378.129 535.233 378.581 535.291C384.277 536.073 389.577 538.645 393.715 542.634C397.854 546.624 400.616 551.825 401.604 557.487L382.452 567.944L401.546 567.089C400.781 571.321 399.008 575.307 396.376 578.709C392.058 584.296 385.73 587.978 378.738 588.97C371.745 589.962 364.642 588.187 358.939 584.022L359.89 585.791C360.524 586.959 361.149 588.122 361.755 589.275C370.053 604.996 370.655 618.571 363.453 627.508L357.568 622.779C364.58 614.082 359.016 600.258 355.078 592.791C354.481 591.66 353.865 590.529 353.267 589.37C347.939 579.492 341.896 568.297 344.318 556.383C347.939 538.418 367.427 530.816 383.103 524.707Z" fill="#F2F2F2"/>
<path d="M157.633 609.878L155.198 608.923C154.962 608.833 154.745 608.729 154.501 608.638C159.007 606.977 162.814 603.833 165.296 599.723C167.778 595.613 168.787 590.781 168.159 586.021C167.53 581.261 165.3 576.857 161.836 573.531C158.372 570.206 153.879 568.158 149.096 567.723L150.793 576.275L144.356 567.822H144.297C141.542 568.198 138.888 569.113 136.487 570.515C134.086 571.917 131.985 573.777 130.303 575.991C128.621 578.205 127.393 580.728 126.687 583.417C125.981 586.105 125.812 588.906 126.19 591.66C126.244 592.063 126.33 592.448 126.403 592.841C124.406 591.34 122.642 589.552 121.17 587.533C118.35 583.461 117.381 578.429 116.403 572.279C114.488 560.093 112.75 547.776 111.188 535.477C116.006 534.021 120.147 530.895 122.866 526.661C125.585 522.427 126.704 517.362 126.023 512.377C125.932 511.734 125.81 511.11 125.665 510.49L125.556 510.037C125.402 509.44 125.235 508.852 125.036 508.281C125.004 508.186 124.963 508.096 124.927 508.005C124.751 507.521 124.556 507.046 124.348 506.58C124.266 506.408 124.189 506.232 124.108 506.06C123.863 505.557 123.605 505.064 123.325 504.584C123.23 504.422 123.125 504.268 123.03 504.132C122.809 503.779 122.578 503.431 122.342 503.096C122.216 502.919 122.093 502.738 121.962 502.566L121.867 502.431C118.865 498.504 114.583 495.751 109.763 494.65C104.944 493.549 99.8904 494.169 95.4803 496.403L97.6894 507.535L91.3202 499.182C87.8977 502.081 85.4918 505.997 84.4534 510.36C83.4151 514.722 83.7988 519.302 85.5486 523.431H85.5259C85.5848 523.572 85.6572 523.707 85.7206 523.848C85.8383 524.11 85.956 524.368 86.0827 524.626C86.2457 524.952 86.4177 525.273 86.5988 525.59C86.7301 525.834 86.8613 526.074 87.0062 526.309C87.2144 526.649 87.4589 526.979 87.6671 527.309C87.8029 527.499 87.9251 527.698 88.0655 527.884C88.4276 528.373 88.8124 528.843 89.2153 529.3C89.3556 529.459 89.5095 529.604 89.6679 529.753C89.9531 530.056 90.2428 530.355 90.5461 530.658C90.7317 530.839 90.9309 531.006 91.1256 531.174C91.4062 531.424 91.6914 531.664 91.9811 531.893C92.1894 532.056 92.4021 532.214 92.6149 532.373C92.9227 532.595 93.2351 532.825 93.5474 533.011C93.7602 533.151 93.9729 533.287 94.1902 533.418C94.5478 533.635 94.9145 533.83 95.2857 534.025C95.4758 534.124 95.6569 534.228 95.847 534.323C96.4083 534.595 96.9787 534.844 97.5627 535.065C97.6713 535.111 97.789 535.138 97.8976 535.178C98.382 535.355 98.8754 535.518 99.3779 535.658C99.5907 535.717 99.8306 535.767 100.03 535.816C100.437 535.916 100.845 536.011 101.261 536.088L101.99 536.206C102.397 536.264 102.809 536.31 103.221 536.346C103.466 536.368 103.706 536.387 103.954 536.4C104.407 536.423 104.86 536.427 105.313 536.423H105.399C106.062 541.618 106.76 546.808 107.49 551.994C105.779 549.676 103.611 547.733 101.122 546.284C98.632 544.834 95.8721 543.908 93.0116 543.564C90.151 543.219 87.2501 543.462 84.4869 544.278C81.7238 545.094 79.1567 546.466 76.9431 548.31L82.4387 557.65L73.5299 551.79C71.8589 553.996 70.639 556.51 69.94 559.188C69.241 561.866 69.0764 564.655 69.4558 567.397C69.7186 569.342 70.2567 571.241 71.0538 573.035C72.7554 576.918 75.585 580.199 79.1754 582.454C82.7659 584.709 86.9514 585.834 91.189 585.681C95.4266 585.529 99.5206 584.108 102.94 581.601C106.359 579.094 108.946 575.618 110.364 571.623C110.446 572.144 110.523 572.673 110.604 573.198C111.464 578.628 112.537 585.379 116.34 590.882C118.92 594.611 122.469 597.366 125.918 599.792C128.164 601.373 130.459 602.881 132.804 604.317C135.269 606.601 138.242 608.266 141.477 609.177C145.243 611.104 149.1 612.86 153.038 614.408L155.492 615.372C157.701 616.231 159.964 617.114 162.196 618.055C161.843 618.087 161.485 618.114 161.128 618.164C156.682 618.773 152.544 620.778 149.312 623.891C146.08 627.003 143.922 631.062 143.147 635.481L158.086 643.626L143.175 642.961C143.831 646.477 145.368 649.77 147.642 652.531C149.916 655.293 152.854 657.433 156.179 658.753C159.505 660.072 163.111 660.528 166.661 660.077C170.211 659.626 173.588 658.283 176.478 656.174C176.229 656.627 175.985 657.079 175.736 657.554C175.242 658.459 174.753 659.364 174.278 660.269C167.8 672.546 167.33 683.153 172.956 690.135L177.542 686.442C172.065 679.655 176.41 668.853 179.488 663.021C179.941 662.138 180.435 661.247 180.919 660.351C185.079 652.658 189.796 643.893 187.917 634.585C185.106 620.584 169.874 614.666 157.633 609.878Z" fill="#F2F2F2"/>
<path d="M286.375 705.886C424.879 705.886 537.159 701.125 537.159 695.253C537.159 689.38 424.879 684.619 286.375 684.619C147.871 684.619 35.5909 689.38 35.5909 695.253C35.5909 701.125 147.871 705.886 286.375 705.886Z" fill="#3F3D56"/>
<path opacity="0.1" d="M286.375 705.886C424.879 705.886 537.159 701.125 537.159 695.253C537.159 689.38 424.879 684.619 286.375 684.619C147.871 684.619 35.5909 689.38 35.5909 695.253C35.5909 701.125 147.871 705.886 286.375 705.886Z" fill="#6D8AD0"/>
<path d="M286.375 700.004C424.879 700.004 537.159 695.243 537.159 689.37C537.159 683.497 424.879 678.736 286.375 678.736C147.871 678.736 35.5909 683.497 35.5909 689.37C35.5909 695.243 147.871 700.004 286.375 700.004Z" fill="#3F3D56"/>
<path d="M74.0686 685.587C72.7106 683.094 74.2497 680.039 76.0061 677.813C77.7625 675.587 79.9036 673.288 79.8584 670.442C79.795 666.369 75.4674 663.966 72.0135 661.808C69.4507 660.205 67.0864 658.305 64.9698 656.147C64.085 655.315 63.3527 654.335 62.806 653.251C62.0907 651.658 62.1134 649.848 62.1586 648.101C62.3095 642.291 62.5962 636.487 63.0187 630.689" stroke="#3F3D56" stroke-width="4" stroke-miterlimit="10"/>
<path d="M56.4639 630.368C56.5128 629.305 56.8287 628.271 57.3825 627.363C57.9363 626.454 58.7102 625.699 59.6327 625.168L61.0541 627.978L61.0134 624.576C61.6912 624.374 62.3983 624.288 63.1047 624.322C64.3555 624.383 65.5601 624.813 66.5665 625.558C67.5729 626.303 68.336 627.33 68.7594 628.508C69.1828 629.686 69.2476 630.963 68.9456 632.178C68.6435 633.393 67.9882 634.491 67.0624 635.334C66.1365 636.176 64.9816 636.726 63.7434 636.914C62.5052 637.101 61.2393 636.917 60.1054 636.386C58.9715 635.855 58.0205 634.999 57.3724 633.928C56.7243 632.857 56.4082 631.618 56.4639 630.368Z" fill="#FB726A"/>
<path d="M67.7945 673.356C68.4258 674.612 69.4571 675.622 70.726 676.228C71.9949 676.834 73.4294 677.001 74.8035 676.702C76.1777 676.404 77.4134 675.657 78.3163 674.579C79.2191 673.501 79.7377 672.154 79.7905 670.749C79.8357 669.872 79.6953 668.994 79.3785 668.175C78.9232 666.962 78.1068 665.917 77.0394 665.183C75.972 664.448 74.7049 664.058 73.4089 664.065C72.113 664.073 70.8504 664.477 69.7915 665.224C68.7326 665.971 67.9281 667.024 67.4867 668.242L71.4567 671.469L67.0928 670.455C67.0904 671.464 67.3311 672.459 67.7945 673.356Z" fill="#FB726A"/>
<path d="M70.9315 661.025C72.5146 661.145 74.085 660.666 75.332 659.684C76.579 658.702 77.4118 657.287 77.6656 655.721C77.9194 654.154 77.5757 652.549 76.7026 651.224C75.8295 649.898 74.4905 648.949 72.9505 648.563L72.9822 651.183L71.5427 648.337C69.8588 648.258 68.2128 648.851 66.9665 649.986C65.7203 651.12 64.976 652.703 64.8973 654.387C64.8187 656.07 65.4122 657.715 66.5472 658.961C67.6822 660.207 69.2658 660.951 70.9497 661.029L70.9315 661.025Z" fill="#FB726A"/>
<path d="M55.5088 650.767C56.341 650.806 57.1729 650.681 57.9568 650.399C58.7407 650.117 59.4613 649.683 60.0776 649.122C60.6938 648.562 61.1936 647.885 61.5483 647.132C61.903 646.378 62.1058 645.562 62.145 644.73C62.1843 643.898 62.0592 643.067 61.777 642.283C61.4947 641.499 61.0608 640.779 60.5001 640.163C59.9393 639.547 59.2627 639.048 58.5088 638.693C57.7549 638.338 56.9386 638.136 56.1063 638.096C54.9182 638.037 53.7377 638.317 52.7022 638.902L53.8248 641.979L51.5116 639.762C50.2744 640.894 49.537 642.471 49.461 644.146C49.4303 644.732 49.4852 645.319 49.6239 645.889C49.9399 647.231 50.6856 648.434 51.7477 649.314C52.8098 650.195 54.1304 650.705 55.5088 650.767Z" fill="#FB726A"/>
<path opacity="0.1" d="M57.3195 632.06C58.7862 632.223 60.2121 632.68 61.6833 632.77C63.1545 632.861 64.7706 632.508 65.7031 631.368C66.2056 630.748 66.4546 629.969 66.8756 629.3C67.2788 628.674 67.8289 628.157 68.478 627.793C68.8614 628.594 69.072 629.466 69.0962 630.354C69.1204 631.242 68.9577 632.124 68.6187 632.945C68.2796 633.766 67.7718 634.506 67.1281 635.118C66.4844 635.73 65.7192 636.199 64.8822 636.497C64.0452 636.794 63.155 636.912 62.2695 636.843C61.3839 636.774 60.5227 636.52 59.7417 636.097C58.9608 635.674 58.2775 635.091 57.7362 634.387C57.1949 633.683 56.8077 632.873 56.5997 632.01C56.8397 632.019 57.0796 632.037 57.3195 632.06Z" fill="#6D8AD0"/>
<path opacity="0.1" d="M55.5088 650.767C56.6045 650.822 57.6959 650.592 58.6761 650.1C59.6564 649.607 60.4919 648.869 61.101 647.957C61.7101 647.045 62.0719 645.99 62.151 644.896C62.23 643.802 62.0237 642.707 61.5521 641.717C61.0477 642.057 60.6142 642.492 60.2755 642.997C59.8228 643.68 59.5467 644.468 59.017 645.097C58.0257 646.26 56.3372 646.64 54.8026 646.567C53.268 646.495 51.7878 646.065 50.2758 645.925C50.0631 645.925 49.8503 645.889 49.6375 645.884C49.952 647.225 50.6953 648.428 51.7548 649.309C52.8142 650.19 54.1322 650.702 55.5088 650.767Z" fill="#6D8AD0"/>
<path opacity="0.1" d="M70.9315 661.025C72.0174 661.081 73.0994 660.856 74.0734 660.373C75.0474 659.89 75.8807 659.165 76.4932 658.266C77.1056 657.368 77.4766 656.328 77.5705 655.245C77.6643 654.162 77.4779 653.073 77.0291 652.083C76.5013 652.427 76.041 652.864 75.6711 653.373C75.1777 654.07 74.8698 654.871 74.3131 655.513C73.2447 656.708 71.4431 657.129 69.818 657.088C68.1928 657.047 66.7307 656.667 65.1644 656.55C65.5467 657.799 66.3061 658.9 67.3385 659.701C68.371 660.502 69.6259 660.965 70.9315 661.025Z" fill="#6D8AD0"/>
<path opacity="0.1" d="M67.7945 673.356C68.4258 674.612 69.4571 675.622 70.726 676.228C71.9949 676.834 73.4294 677.001 74.8035 676.702C76.1776 676.404 77.4134 675.657 78.3163 674.579C79.2191 673.501 79.7377 672.154 79.7905 670.749C79.8357 669.872 79.6953 668.994 79.3785 668.175C78.8551 668.517 78.3853 668.935 77.9843 669.414C77.3777 670.152 76.9839 670.985 76.2822 671.677C74.983 672.953 72.8871 673.487 71.0221 673.528C69.9438 673.532 68.8662 673.475 67.7945 673.356Z" fill="#6D8AD0"/>
<path d="M83.6609 682.718C83.6609 682.718 78.6452 682.564 77.1378 681.487C75.6304 680.41 69.4422 679.125 69.0484 680.854C68.6546 682.582 61.5113 689.451 67.1743 689.479C72.8373 689.506 80.3292 688.574 81.8366 687.669C83.344 686.764 83.6609 682.718 83.6609 682.718Z" fill="#656380"/>
<path opacity="0.2" d="M67.0702 688.877C72.7332 688.922 80.2251 687.972 81.737 687.067C82.8823 686.37 83.3395 683.858 83.4934 682.7H83.6609C83.6609 682.7 83.344 686.741 81.8502 687.678C80.3563 688.614 72.8464 689.524 67.1879 689.488C65.5537 689.488 64.9879 688.895 65.0196 688.031C65.2323 688.542 65.857 688.877 67.0702 688.877Z" fill="#6D8AD0"/>
<path d="M513.167 689.66C511.809 687.166 513.348 684.112 515.105 681.885C516.861 679.659 519.002 677.36 518.957 674.514C518.893 670.442 514.566 668.039 511.112 665.88C508.549 664.277 506.185 662.377 504.068 660.219C503.184 659.388 502.451 658.408 501.904 657.323C501.189 655.731 501.212 653.921 501.257 652.174C501.405 646.364 501.692 640.56 502.117 634.761" stroke="#3F3D56" stroke-width="4" stroke-miterlimit="10"/>
<path d="M495.562 634.44C495.611 633.377 495.927 632.344 496.481 631.435C497.035 630.526 497.809 629.772 498.731 629.241L500.153 632.051L500.112 628.648C500.79 628.446 501.497 628.361 502.203 628.395C503.454 628.457 504.658 628.888 505.664 629.633C506.669 630.379 507.432 631.405 507.854 632.583C508.277 633.761 508.341 635.038 508.039 636.253C507.736 637.467 507.081 638.565 506.155 639.407C505.229 640.25 504.074 640.799 502.836 640.986C501.598 641.173 500.332 640.989 499.199 640.458C498.065 639.926 497.114 639.071 496.466 638C495.818 636.929 495.502 635.691 495.558 634.44H495.562Z" fill="#FB726A"/>
<path d="M506.893 677.428C507.524 678.684 508.556 679.695 509.825 680.301C511.093 680.907 512.528 681.073 513.902 680.775C515.276 680.476 516.512 679.729 517.415 678.652C518.318 677.574 518.836 676.227 518.889 674.822C518.934 673.944 518.794 673.067 518.477 672.247C518.022 671.034 517.205 669.99 516.138 669.255C515.071 668.521 513.803 668.131 512.507 668.138C511.212 668.145 509.949 668.55 508.89 669.297C507.831 670.044 507.027 671.097 506.585 672.315L510.555 675.541L506.191 674.528C506.189 675.537 506.43 676.532 506.893 677.428Z" fill="#FB726A"/>
<path d="M510.03 665.098C511.613 665.217 513.184 664.739 514.431 663.756C515.678 662.774 516.51 661.36 516.764 659.793C517.018 658.227 516.674 656.622 515.801 655.296C514.928 653.971 513.589 653.021 512.049 652.635L512.081 655.255L510.641 652.409C508.957 652.331 507.311 652.924 506.065 654.058C504.819 655.193 504.075 656.776 503.996 658.459C503.917 660.142 504.511 661.788 505.646 663.034C506.781 664.279 508.364 665.023 510.048 665.102L510.03 665.098Z" fill="#FB726A"/>
<path d="M494.607 654.839C496.288 654.918 497.932 654.327 499.176 653.195C500.421 652.063 501.164 650.483 501.244 648.803C501.323 647.123 500.731 645.48 499.599 644.236C498.466 642.992 496.886 642.248 495.205 642.169C494.017 642.11 492.836 642.389 491.801 642.974L492.923 646.051L490.61 643.834C489.373 644.967 488.636 646.544 488.56 648.219C488.529 648.805 488.584 649.391 488.723 649.961C489.039 651.304 489.784 652.507 490.846 653.387C491.908 654.267 493.229 654.777 494.607 654.839Z" fill="#FB726A"/>
<path opacity="0.1" d="M496.418 636.133C497.885 636.295 499.311 636.753 500.782 636.843C502.253 636.934 503.869 636.581 504.802 635.44C505.304 634.82 505.553 634.042 505.974 633.372C506.377 632.747 506.927 632.23 507.576 631.865C507.96 632.666 508.17 633.539 508.195 634.427C508.219 635.314 508.056 636.197 507.717 637.018C507.378 637.838 506.87 638.578 506.227 639.19C505.583 639.802 504.818 640.272 503.981 640.569C503.144 640.866 502.254 640.984 501.368 640.915C500.482 640.846 499.621 640.592 498.84 640.169C498.059 639.746 497.376 639.164 496.835 638.46C496.293 637.756 495.906 636.946 495.698 636.083C495.938 636.092 496.178 636.11 496.418 636.133Z" fill="#6D8AD0"/>
<path opacity="0.1" d="M494.607 654.839C495.703 654.895 496.794 654.665 497.775 654.172C498.755 653.68 499.59 652.941 500.2 652.029C500.809 651.117 501.17 650.063 501.25 648.969C501.329 647.875 501.122 646.779 500.651 645.789C500.146 646.129 499.713 646.564 499.374 647.07C498.921 647.753 498.645 648.54 498.116 649.169C497.124 650.332 495.436 650.712 493.901 650.64C492.366 650.567 490.886 650.138 489.374 649.997C489.162 649.997 488.949 649.961 488.736 649.957C489.05 651.298 489.794 652.5 490.853 653.381C491.913 654.262 493.231 654.774 494.607 654.839Z" fill="#6D8AD0"/>
<path opacity="0.1" d="M510.03 665.098C511.116 665.153 512.198 664.929 513.172 664.446C514.146 663.963 514.979 663.237 515.592 662.339C516.204 661.441 516.575 660.401 516.669 659.318C516.763 658.235 516.576 657.146 516.128 656.156C515.6 656.499 515.139 656.936 514.77 657.446C514.276 658.143 513.968 658.943 513.412 659.586C512.343 660.781 510.542 661.201 508.916 661.161C507.291 661.12 505.829 660.74 504.263 660.622C504.645 661.872 505.405 662.972 506.437 663.773C507.47 664.575 508.724 665.037 510.03 665.098Z" fill="#6D8AD0"/>
<path opacity="0.1" d="M506.893 677.428C507.524 678.684 508.556 679.695 509.824 680.301C511.093 680.907 512.528 681.073 513.902 680.775C515.276 680.476 516.512 679.729 517.415 678.652C518.318 677.574 518.836 676.227 518.889 674.822C518.934 673.944 518.794 673.067 518.477 672.247C517.954 672.589 517.484 673.007 517.083 673.487C516.476 674.225 516.082 675.057 515.381 675.749C514.081 677.026 511.986 677.56 510.121 677.6C509.042 677.605 507.965 677.547 506.893 677.428Z" fill="#6D8AD0"/>
<path d="M522.759 686.791C522.759 686.791 517.744 686.637 516.236 685.56C514.729 684.483 508.541 683.198 508.147 684.926C507.753 686.655 500.61 693.524 506.273 693.551C511.936 693.578 519.428 692.646 520.935 691.741C522.442 690.836 522.759 686.791 522.759 686.791Z" fill="#656380"/>
<path opacity="0.2" d="M506.169 692.949C511.832 692.995 519.323 692.044 520.835 691.139C521.981 690.442 522.438 687.931 522.592 686.773H522.759C522.759 686.773 522.442 690.813 520.949 691.75C519.455 692.687 511.945 693.596 506.286 693.56C504.652 693.56 504.086 692.967 504.118 692.103C504.331 692.614 504.956 692.949 506.169 692.949Z" fill="#6D8AD0"/>
<path d="M373.095 524.87C370.101 523.845 367.083 522.894 364.041 522.02C364.542 519.971 365.008 517.912 365.44 515.843C372.293 482.579 367.812 455.782 352.507 446.962C337.831 438.5 313.83 447.324 289.585 468.407C287.194 470.494 284.86 472.636 282.582 474.832C281.052 473.369 279.497 471.935 277.919 470.529C252.519 447.98 227.074 438.482 211.764 447.329C197.102 455.813 192.752 481.004 198.931 512.53C199.535 515.653 200.227 518.757 201.009 521.843C197.41 522.866 193.929 523.956 190.597 525.119C160.815 535.477 141.794 551.767 141.794 568.641C141.794 586.067 162.214 603.548 193.236 614.145C195.753 614.999 198.288 615.792 200.841 616.525C200.014 619.844 199.278 623.189 198.632 626.562C192.747 657.541 197.347 682.139 211.968 690.569C227.074 699.284 252.424 690.325 277.104 668.758C279.055 667.052 281.011 665.242 282.989 663.351C285.458 665.731 287.991 668.042 290.589 670.283C314.5 690.85 338.121 699.158 352.724 690.7C367.812 681.972 372.714 655.545 366.35 623.399C365.867 620.943 365.304 618.438 364.661 615.883C366.445 615.358 368.189 614.813 369.894 614.249C402.143 603.57 423.129 586.303 423.129 568.641C423.129 551.704 403.492 535.328 373.108 524.87H373.095Z" fill="#53C1DE"/>
<path d="M366.101 602.846C364.562 603.358 362.986 603.846 361.375 604.326C357.443 592.14 352.683 580.237 347.129 568.7C352.472 557.317 357.046 545.589 360.823 533.595C363.697 534.427 366.495 535.305 369.184 536.233C395.217 545.188 411.097 558.433 411.097 568.641C411.097 579.501 393.945 593.624 366.101 602.846ZM354.548 625.734C357.364 639.947 357.762 652.798 355.906 662.839C354.232 671.867 350.864 677.885 346.699 680.297C337.831 685.424 318.873 678.759 298.425 661.17C296.08 659.152 293.722 657.002 291.35 654.722C299.875 645.287 307.753 635.288 314.93 624.793C327.75 623.707 340.481 621.741 353.032 618.91C353.605 621.227 354.114 623.49 354.557 625.698L354.548 625.734ZM237.703 679.419C229.039 682.478 222.14 682.564 217.971 680.161C209.098 675.044 205.409 655.274 210.443 628.802C211.046 625.674 211.73 622.562 212.493 619.467C224.992 622.149 237.658 623.983 250.405 624.956C257.792 635.414 265.86 645.376 274.556 654.776C272.808 656.468 271.022 658.114 269.196 659.713C258.282 669.251 247.34 676.003 237.703 679.419ZM197.125 602.778C183.404 598.09 172.078 592 164.31 585.357C157.334 579.384 153.813 573.451 153.813 568.641C153.813 558.401 169.086 545.337 194.554 536.463C197.753 535.35 200.98 534.335 204.236 533.418C208.019 545.545 212.6 557.408 217.948 568.931C212.533 580.619 207.897 592.651 204.069 604.95C201.733 604.284 199.418 603.56 197.125 602.778ZM210.728 510.223C205.441 483.213 208.949 462.836 217.785 457.732C227.196 452.302 248.006 460.049 269.943 479.52C271.346 480.764 272.754 482.068 274.162 483.412C265.528 492.754 257.524 502.659 250.201 513.06C237.575 514.192 225.035 516.14 212.661 518.893C211.94 516.021 211.295 513.132 210.728 510.227V510.223ZM332.096 540.174C329.346 535.426 326.496 530.738 323.544 526.11C332.521 527.246 341.117 528.748 349.193 530.594C346.602 538.812 343.597 546.894 340.189 554.808C337.591 549.876 334.893 544.998 332.096 540.174ZM282.591 491.996C288.441 498.371 293.966 505.038 299.145 511.969C288.067 511.447 276.983 511.447 265.896 511.969C271.36 504.765 276.959 498.068 282.591 492V491.996ZM232.796 540.255C230.035 545.043 227.386 549.891 224.851 554.799C221.352 546.505 218.36 538.346 215.916 530.468C223.942 528.658 232.502 527.205 241.419 526.088C238.426 530.745 235.548 535.468 232.787 540.255H232.796ZM241.673 612.046C232.969 611.101 224.319 609.71 215.757 607.878C218.242 599.864 221.302 591.529 224.879 583.054C227.423 587.968 230.08 592.819 232.85 597.606C235.669 602.49 238.607 607.303 241.664 612.046H241.673ZM282.93 646.133C277.226 640.006 271.545 633.218 266.004 625.883C271.391 626.097 276.878 626.205 282.464 626.205C288.198 626.205 293.858 626.078 299.444 625.824C294.287 632.872 288.773 639.65 282.921 646.133H282.93ZM340.28 582.624C343.864 590.699 347.025 598.954 349.75 607.358C341.083 609.307 332.319 610.801 323.495 611.833C326.467 607.118 329.346 602.347 332.132 597.52C334.963 592.615 337.679 587.65 340.28 582.624ZM321.72 591.52C317.459 598.917 312.961 606.172 308.226 613.286C299.878 613.883 291.255 614.191 282.464 614.191C273.673 614.191 265.194 613.919 256.992 613.385C252.136 606.296 247.55 599.03 243.235 591.588C238.919 584.146 234.919 576.592 231.234 568.926C234.937 561.225 238.925 553.668 243.198 546.256C247.466 538.847 252.012 531.607 256.838 524.535C265.208 523.902 273.781 523.572 282.455 523.572C291.128 523.572 299.756 523.906 308.117 524.54C312.888 531.59 317.415 538.801 321.698 546.174C325.98 553.547 330.022 561.069 333.825 568.741C330.068 576.47 326.037 584.057 321.734 591.502L321.72 591.52ZM346.513 457.37C355.934 462.8 359.596 484.701 353.679 513.422C353.29 515.289 352.867 517.152 352.412 519.01C340.019 516.202 327.454 514.217 314.799 513.069C307.547 502.658 299.602 492.747 291.019 483.403C293.132 481.369 295.288 479.392 297.488 477.47C318.257 459.402 337.668 452.27 346.513 457.37Z" fill="white"/>
<path d="M282.455 543.527C287.424 543.527 292.281 545 296.413 547.76C300.544 550.519 303.765 554.441 305.666 559.03C307.568 563.619 308.065 568.669 307.096 573.541C306.126 578.412 303.734 582.887 300.22 586.4C296.706 589.912 292.23 592.304 287.356 593.273C282.483 594.242 277.431 593.744 272.84 591.844C268.25 589.943 264.326 586.724 261.565 582.594C258.805 578.464 257.331 573.608 257.331 568.641C257.331 565.343 257.98 562.077 259.242 559.03C260.505 555.983 262.355 553.214 264.688 550.882C267.021 548.549 269.791 546.7 272.84 545.438C275.888 544.176 279.155 543.527 282.455 543.527Z" fill="#53C1DE"/>
<path d="M288.756 384.254C288.756 385.74 288.315 387.192 287.49 388.427C286.664 389.662 285.49 390.625 284.117 391.194C282.744 391.762 281.233 391.911 279.776 391.621C278.318 391.331 276.979 390.616 275.928 389.565C274.877 388.515 274.162 387.176 273.872 385.719C273.582 384.262 273.73 382.752 274.299 381.379C274.868 380.007 275.831 378.834 277.067 378.008C278.303 377.183 279.755 376.742 281.242 376.742C282.23 376.738 283.209 376.929 284.123 377.304C285.037 377.68 285.867 378.233 286.566 378.932C287.265 379.63 287.818 380.46 288.194 381.374C288.57 382.287 288.761 383.266 288.756 384.254Z" fill="#3F3D56"/>
<path d="M275.239 386.15C274.643 385.074 274.321 383.868 274.3 382.639C274.278 381.409 274.559 380.193 275.117 379.097C275.675 378.001 276.493 377.059 277.5 376.352C278.507 375.646 279.672 375.197 280.893 375.045C279.858 375.009 278.826 375.187 277.863 375.569C276.9 375.95 276.026 376.526 275.296 377.261C274.567 377.996 273.997 378.874 273.623 379.84C273.249 380.805 273.078 381.838 273.122 382.872C273.167 383.907 273.424 384.921 273.879 385.852C274.334 386.782 274.977 387.608 275.766 388.278C276.556 388.949 277.476 389.448 278.468 389.746C279.46 390.044 280.503 390.134 281.531 390.01C280.239 389.962 278.981 389.582 277.878 388.906C276.776 388.229 275.867 387.28 275.239 386.15Z" fill="#3F3D56"/>
<path d="M291.979 394.716H271.849V426.106H291.979V394.716Z" fill="#3F3D56"/>
<path opacity="0.1" d="M291.979 394.716H271.849V426.106H291.979V394.716Z" fill="#6D8AD0"/>
<path d="M240.048 508.603C240.048 508.603 237.898 514.508 232.805 515.313C227.712 516.119 224.752 517.458 224.752 517.458L236.829 525.237L243.271 524.431C243.271 524.431 244.077 516.114 246.761 514.236C249.446 512.359 240.048 508.603 240.048 508.603Z" fill="#A0616A"/>
<path d="M327.27 508.603C327.27 508.603 329.42 514.508 334.513 515.313C339.606 516.119 342.566 517.458 342.566 517.458L330.489 525.237L324.047 524.431C324.047 524.431 323.241 516.114 320.557 514.236C317.872 512.359 327.27 508.603 327.27 508.603Z" fill="#A0616A"/>
<path d="M268.494 456.555C268.494 456.555 265.276 458.166 264.203 461.388C264.203 461.388 258.318 463.266 255.077 468.361C255.077 468.361 251.048 472.656 250.514 474.8C249.98 476.945 243.823 489.824 243.823 489.824C243.823 489.824 237.649 509.947 234.43 512.092C234.43 512.092 244.629 509.947 246.508 520.142C246.508 520.142 248.92 520.142 251.605 510.752C254.289 501.363 260.731 489.824 260.731 489.824C260.731 489.824 262.876 481.778 264.755 480.434C266.634 479.09 269.585 472.923 272.27 474.552C274.954 476.181 292.667 474.28 292.667 474.28C292.667 474.28 303.124 479.095 303.387 482.312C303.649 485.529 305.532 485.801 305.799 488.484C306.067 491.168 315.998 512.359 315.998 512.359C315.998 512.359 317.877 518.241 318.416 519.599C318.416 519.599 324.3 505.381 332.105 513.431C332.105 513.431 331.833 508.064 329.42 504.833C327.007 501.602 316.537 476.398 316.537 476.398C316.537 476.398 315.464 472.642 314.391 471.57C313.318 470.497 304.994 461.909 302.042 461.909C302.042 461.909 300.435 457.886 298.557 457.347L268.494 456.555Z" fill="#3F3D56"/>
<path d="M244.339 522.553C242.243 523.395 239.965 523.679 237.726 523.378C235.487 523.078 233.365 522.203 231.565 520.838C229.816 519.496 227.9 518.385 225.865 517.535C223.018 516.386 219.614 515.535 218.577 517.458C216.699 520.947 241.388 529.531 241.388 529.531C241.388 529.531 244.611 527.653 244.339 522.553Z" fill="#3F3D56"/>
<path d="M322.979 522.553C325.075 523.395 327.353 523.679 329.592 523.378C331.831 523.078 333.953 522.203 335.753 520.838C337.502 519.496 339.418 518.385 341.452 517.535C344.3 516.386 347.704 515.535 348.741 517.458C350.619 520.947 325.93 529.531 325.93 529.531C325.93 529.531 322.707 527.653 322.979 522.553Z" fill="#3F3D56"/>
<path d="M277.267 412.431C277.167 413.364 276.86 414.373 276.063 414.866C275.411 415.273 274.587 415.242 273.836 415.395C273.047 415.593 272.315 415.973 271.7 416.505C271.085 417.037 270.604 417.707 270.296 418.459C269.693 419.977 269.574 421.645 269.956 423.233C270.134 424.011 270.364 424.776 270.644 425.523C271.432 427.749 272.383 429.957 273.854 431.808C275.109 433.279 276.521 434.61 278.064 435.776C279.019 436.555 280.006 437.346 281.183 437.713C281.981 437.924 282.802 438.033 283.627 438.039C284.646 438.084 285.732 438.116 286.615 437.609C287.973 436.826 288.376 435.098 289.114 433.708C289.738 432.532 290.671 431.532 291.255 430.333C291.67 429.388 291.974 428.397 292.16 427.382L293.414 421.816C293.867 419.794 294.283 417.513 293.147 415.78C293.065 415.639 292.95 415.52 292.812 415.432C292.593 415.345 292.355 415.322 292.124 415.364C290.681 415.458 289.241 415.129 287.982 414.418C287.785 414.316 287.608 414.178 287.461 414.011C287.281 413.721 287.172 413.392 287.145 413.051C287.022 412.362 286.828 411.687 286.565 411.038C286.491 410.804 286.355 410.594 286.171 410.431C285.979 410.311 285.76 410.238 285.533 410.219C283.595 409.904 281.641 409.7 279.68 409.608C279.037 409.576 278.068 409.318 277.625 409.888C277.181 410.459 277.321 411.753 277.267 412.431Z" fill="#A0616A"/>
<path opacity="0.1" d="M277.267 412.431C277.167 413.364 276.86 414.373 276.063 414.866C275.411 415.273 274.587 415.242 273.836 415.395C273.047 415.593 272.315 415.973 271.7 416.505C271.085 417.037 270.604 417.707 270.296 418.459C269.693 419.977 269.574 421.645 269.956 423.233C270.134 424.011 270.364 424.776 270.644 425.523C271.432 427.749 272.383 429.957 273.854 431.808C275.109 433.279 276.521 434.61 278.064 435.776C279.019 436.555 280.006 437.346 281.183 437.713C281.981 437.924 282.802 438.033 283.627 438.039C284.646 438.084 285.732 438.116 286.615 437.609C287.973 436.826 288.376 435.098 289.114 433.708C289.738 432.532 290.671 431.532 291.255 430.333C291.67 429.388 291.974 428.397 292.16 427.382L293.414 421.816C293.867 419.794 294.283 417.513 293.147 415.78C293.065 415.639 292.95 415.52 292.812 415.432C292.593 415.345 292.355 415.322 292.124 415.364C290.681 415.458 289.241 415.129 287.982 414.418C287.785 414.316 287.608 414.178 287.461 414.011C287.281 413.721 287.172 413.392 287.145 413.051C287.022 412.362 286.828 411.687 286.565 411.038C286.491 410.804 286.355 410.594 286.171 410.431C285.979 410.311 285.76 410.238 285.533 410.219C283.595 409.904 281.641 409.7 279.68 409.608C279.037 409.576 278.068 409.318 277.625 409.888C277.181 410.459 277.321 411.753 277.267 412.431Z" fill="#6D8AD0"/>
<path d="M273.632 415.631C272.584 415.318 271.498 415.147 270.404 415.124C267.815 415.061 265.045 415.952 263.551 418.065C262.533 419.591 262.161 421.456 262.514 423.255C262.875 425.038 263.685 426.698 264.868 428.079C265.552 428.805 266.159 429.6 266.679 430.45C267.394 431.808 267.417 433.432 267.611 434.975C268.064 438.65 269.63 442.102 270.251 445.754C270.871 449.406 270.337 453.637 267.453 455.958C266.969 456.347 266.38 456.759 266.339 457.379C266.276 458.37 267.566 458.791 268.558 458.886C271.523 459.166 274.565 459.442 277.444 458.678C278.634 458.361 279.784 457.868 280.997 457.641C284.075 457.067 287.172 458.248 290.254 458.813C292.485 459.182 294.743 459.365 297.004 459.361C297.53 459.408 298.06 459.338 298.557 459.157C298.803 459.061 299.011 458.889 299.153 458.666C299.295 458.443 299.362 458.181 299.344 457.917C299.244 457.576 299.06 457.265 298.81 457.012C297.253 455.089 296.778 452.533 296.352 450.094L294.926 441.899C294.161 437.518 293.45 432.758 295.524 428.826C297.013 425.998 299.761 424.007 301.332 421.224C301.879 420.383 302.126 419.381 302.033 418.382C301.798 416.984 300.535 415.984 299.24 415.4C296.749 414.283 293.921 414.179 291.354 415.11C291.4 417.07 290.902 419.052 290.58 420.993L290.033 424.16C289.754 426.027 289.344 427.872 288.806 429.681C288.611 430.405 288.277 431.084 287.824 431.681C287.34 432.218 286.75 432.648 286.09 432.944C284.661 433.642 283.09 434.001 281.5 433.993C280.811 434.004 280.125 433.898 279.472 433.681C278.419 433.22 277.469 432.552 276.679 431.717C276.402 431.481 276.154 431.212 275.941 430.916C275.715 430.54 275.546 430.133 275.438 429.708C275.072 428.601 274.783 427.47 274.574 426.323C274.438 425.446 274.393 424.554 274.329 423.667C274.153 421.047 274.153 418.151 273.632 415.631Z" fill="#FB726A"/>
<path d="M270.911 467.556C270.911 467.556 269.839 481.778 276.547 484.19C283.256 486.602 277.353 472.384 277.353 472.384L275.203 468.094L270.911 467.556Z" fill="#A0616A"/>
<path d="M293.722 467.556C293.722 467.556 294.795 481.778 288.086 484.19C281.377 486.602 287.28 472.384 287.28 472.384L289.431 468.094L293.722 467.556Z" fill="#A0616A"/>
<path opacity="0.1" d="M265.004 420.088L262.858 423.577C262.858 423.577 264.737 435.65 265.004 437.794C265.236 439.342 265.596 440.868 266.081 442.356C266.081 442.356 266.349 448.795 266.349 451.211C266.349 453.628 267.707 457.65 267.707 457.65C267.896 459.931 268.352 462.182 269.065 464.357C270.137 467.307 271.21 470.796 271.21 470.796C271.21 470.796 272.568 467.04 277.919 472.674C278.518 472.066 278.854 471.247 278.854 470.393C278.854 469.54 278.518 468.72 277.919 468.112C277.919 468.112 276.312 460.872 276.312 457.112C276.312 453.352 273.356 435.392 273.356 435.392C273.356 435.392 271.437 414.975 265.004 420.088Z" fill="#6D8AD0"/>
<path d="M264.47 419.803L262.324 423.292C262.324 423.292 264.203 435.364 264.47 437.509C264.702 439.057 265.064 440.583 265.552 442.071C265.552 442.071 265.819 448.51 265.819 450.922C265.819 453.334 267.177 457.361 267.177 457.361C267.365 459.642 267.821 461.893 268.535 464.067C269.608 467.022 270.685 470.506 270.685 470.506C270.685 470.506 272.043 466.75 277.394 472.384C277.992 471.776 278.327 470.958 278.327 470.106C278.327 469.253 277.992 468.435 277.394 467.827C277.394 467.827 275.782 460.587 275.782 456.827C275.782 453.067 272.831 435.107 272.831 435.107C272.831 435.107 270.911 414.703 264.47 419.803Z" fill="#FB726A"/>
<path opacity="0.1" d="M299.897 417.925L301.255 419.522C301.255 419.522 302.834 428.654 299.344 440.193L298.271 450.655C298.271 450.655 296.393 459.51 296.126 461.655C295.859 463.8 295.859 464.067 295.32 464.872C295.157 465.061 295.067 465.302 295.067 465.551C295.067 465.801 295.157 466.042 295.32 466.23L293.708 472.113C293.708 472.113 291.296 469.162 286.466 472.918C286.466 472.918 285.108 470.773 286.194 468.895C287.28 467.017 287.267 466.212 287 465.673C286.733 465.135 288.073 462.456 288.073 461.918C288.073 461.379 289.965 449.048 289.965 449.048C289.965 449.048 290.771 436.975 291.576 432.953C292.07 430.477 292.061 424.961 291.975 421.079C291.889 417.033 296.787 414.843 299.67 417.685C299.738 417.757 299.82 417.825 299.897 417.925Z" fill="#6D8AD0"/>
<path d="M300.702 417.373L302.06 418.97C302.06 418.97 303.64 428.106 300.15 439.641L299.077 450.103C299.077 450.103 297.199 458.958 296.931 461.103C296.664 463.248 296.66 463.519 296.126 464.325C295.961 464.513 295.871 464.754 295.871 465.004C295.871 465.253 295.961 465.494 296.126 465.682L294.523 471.583C294.523 471.583 292.11 468.628 287.28 472.384C287.28 472.384 285.922 470.239 287.013 468.361C288.104 466.483 288.086 465.678 287.819 465.144C287.552 464.61 288.892 461.922 288.892 461.388C288.892 460.854 290.771 448.51 290.771 448.51C290.771 448.51 291.576 436.437 292.382 432.41C293.188 428.382 292.649 416.314 292.649 416.314C292.649 416.314 296.945 413.364 300.702 417.373Z" fill="#FB726A"/>
<path d="M282.717 413.635C288.648 413.635 293.455 408.83 293.455 402.902C293.455 396.974 288.648 392.168 282.717 392.168C276.787 392.168 271.98 396.974 271.98 402.902C271.98 408.83 276.787 413.635 282.717 413.635Z" fill="#A0616A"/>
<path opacity="0.1" d="M288.317 386.788C287.801 388.228 286.857 389.477 285.612 390.366C284.367 391.255 282.879 391.744 281.349 391.765C279.819 391.787 278.318 391.341 277.049 390.487C275.779 389.633 274.8 388.412 274.243 386.987C278.435 385.299 282.717 386.802 282.717 386.802C284.859 386.05 286.714 386.118 288.317 386.788Z" fill="#6D8AD0"/>
<path d="M282.717 387.34C282.717 387.34 262.053 380.1 267.154 415.242C267.154 415.242 271.717 418.192 275.203 416.314C275.203 416.314 272.79 391.901 282.183 392.974C291.576 394.046 289.965 415.78 289.965 415.78C289.965 415.78 295.334 417.386 296.945 414.423C298.557 411.459 296.406 382.53 282.717 387.34Z" fill="#3F3D56"/>
<path opacity="0.1" d="M282.183 391.363C275.737 390.63 274.85 401.893 274.94 409.033C275.017 401.933 276.212 392.29 282.183 392.974C288.887 393.738 289.987 405.038 290.064 411.436C290.141 405.562 289.499 392.2 282.183 391.363Z" fill="#6D8AD0"/>
<path opacity="0.1" d="M267.154 413.631C266.687 410.554 266.419 407.451 266.353 404.341C266.331 407.99 266.599 411.635 267.154 415.242C267.154 415.242 271.717 418.192 275.203 416.314C275.203 416.314 275.149 415.735 275.085 414.762C271.613 416.513 267.154 413.631 267.154 413.631Z" fill="#6D8AD0"/>
<path opacity="0.1" d="M296.945 412.848C295.442 415.599 290.685 414.391 290.042 414.205C290.01 415.201 289.965 415.798 289.965 415.798C289.965 415.798 295.334 417.405 296.945 414.441C297.276 413.834 297.448 412.119 297.398 409.825C297.352 411.296 297.194 412.395 296.945 412.848Z" fill="#6D8AD0"/>
<path d="M409.834 679.542C411.98 675.568 409.545 670.7 406.747 667.156C403.949 663.613 400.532 659.916 400.604 655.391C400.708 648.898 407.598 645.07 413.107 641.626C417.191 639.073 420.958 636.046 424.329 632.608C425.687 631.227 426.986 629.752 427.778 627.987C428.919 625.453 428.887 622.557 428.815 619.788C428.577 610.524 428.124 601.271 427.457 592.031" stroke="#3F3D56" stroke-width="4" stroke-miterlimit="10"/>
<path d="M437.905 591.543C437.827 589.848 437.324 588.2 436.441 586.751C435.558 585.302 434.324 584.099 432.853 583.253L430.589 587.732L430.657 582.302C428.598 581.694 426.399 581.755 424.377 582.477C422.355 583.199 420.615 584.545 419.409 586.32C418.202 588.096 417.591 590.209 417.664 592.354C417.737 594.499 418.491 596.565 419.815 598.254C421.14 599.943 422.967 601.168 425.034 601.751C427.1 602.334 429.299 602.245 431.311 601.498C433.324 600.751 435.047 599.383 436.231 597.593C437.416 595.802 438 593.682 437.9 591.538L437.905 591.543Z" fill="#FB726A"/>
<path d="M419.852 660.048C418.79 662.112 417.05 663.749 414.924 664.683C412.798 665.617 410.415 665.792 408.175 665.179C405.936 664.565 403.975 663.201 402.622 661.313C401.27 659.426 400.608 657.132 400.747 654.814C400.886 652.497 401.818 650.298 403.386 648.586C404.955 646.874 407.065 645.754 409.362 645.412C411.659 645.071 414.004 645.53 416.003 646.711C418.002 647.893 419.533 649.726 420.341 651.902L414.003 657.047L420.961 655.432C420.965 657.037 420.584 658.619 419.852 660.048Z" fill="#FB726A"/>
<path d="M414.85 640.395C412.373 640.5 409.943 639.693 408.021 638.127C406.1 636.56 404.82 634.344 404.424 631.897C404.029 629.45 404.545 626.944 405.875 624.852C407.205 622.76 409.256 621.229 411.64 620.548L411.586 624.72L413.877 620.195H413.904C415.238 620.123 416.573 620.316 417.832 620.762C419.091 621.208 420.25 621.899 421.241 622.794C422.232 623.69 423.036 624.773 423.606 625.98C424.177 627.188 424.502 628.496 424.565 629.83C424.627 631.164 424.425 632.497 423.97 633.753C423.514 635.008 422.815 636.161 421.912 637.146C421.009 638.13 419.92 638.925 418.708 639.487C417.496 640.049 416.185 640.365 414.85 640.418V640.395Z" fill="#FB726A"/>
<path d="M439.43 624.046C437.864 624.119 436.302 623.828 434.868 623.195C433.434 622.563 432.166 621.606 431.165 620.4C430.163 619.194 429.456 617.772 429.098 616.246C428.74 614.72 428.741 613.132 429.102 611.607C429.462 610.082 430.172 608.661 431.175 607.457C432.178 606.253 433.448 605.298 434.883 604.667C436.318 604.037 437.881 603.748 439.447 603.824C441.013 603.9 442.54 604.338 443.907 605.104L442.097 610.005L445.777 606.475C447.25 607.826 448.291 609.583 448.767 611.524C449.243 613.466 449.133 615.504 448.452 617.383C447.771 619.262 446.549 620.898 444.939 622.084C443.33 623.269 441.405 623.952 439.408 624.046H439.43Z" fill="#FB726A"/>
<path opacity="0.1" d="M436.547 594.24C434.206 594.497 431.934 595.226 429.589 595.371C427.244 595.516 424.668 594.955 423.188 593.108C422.387 592.126 421.989 590.887 421.314 589.814C420.674 588.818 419.798 587.995 418.766 587.416C418.113 588.699 417.741 590.107 417.676 591.545C417.61 592.983 417.852 594.419 418.386 595.756C418.92 597.093 419.732 598.301 420.77 599.299C421.808 600.297 423.047 601.063 424.404 601.544C425.761 602.026 427.206 602.213 428.641 602.092C430.076 601.971 431.469 601.546 432.727 600.844C433.984 600.142 435.078 599.181 435.934 598.023C436.79 596.865 437.39 595.539 437.692 594.131C437.307 594.172 436.927 594.199 436.547 594.24Z" fill="#6D8AD0"/>
<path opacity="0.1" d="M439.43 624.046C437.685 624.126 435.949 623.754 434.39 622.965C432.831 622.177 431.503 620.999 430.534 619.546C429.564 618.093 428.987 616.415 428.858 614.673C428.729 612.932 429.053 611.186 429.797 609.607C430.603 610.147 431.296 610.84 431.834 611.647C432.554 612.733 432.993 613.991 433.84 614.991C435.415 616.842 438.113 617.449 440.557 617.34C443.002 617.231 445.356 616.535 447.8 616.308C448.14 616.281 448.479 616.258 448.823 616.249C448.319 618.394 447.13 620.315 445.434 621.722C443.739 623.129 441.631 623.945 439.43 624.046Z" fill="#6D8AD0"/>
<path opacity="0.1" d="M414.85 640.395C413.122 640.476 411.402 640.113 409.855 639.341C408.307 638.569 406.983 637.413 406.009 635.984C405.035 634.555 404.443 632.901 404.29 631.179C404.137 629.456 404.428 627.724 405.135 626.146C405.97 626.694 406.696 627.392 407.276 628.205C408.064 629.313 408.553 630.589 409.476 631.617C411.183 633.517 414.053 634.187 416.642 634.123C419.15 634.069 421.563 633.454 424.057 633.264C423.444 635.256 422.231 637.01 420.583 638.286C418.935 639.562 416.932 640.299 414.85 640.395Z" fill="#6D8AD0"/>
<path opacity="0.1" d="M419.852 660.048C418.678 662.373 416.653 664.158 414.197 665.029C411.741 665.9 409.044 665.792 406.666 664.726C404.288 663.66 402.413 661.718 401.431 659.305C400.448 656.893 400.434 654.194 401.392 651.771C402.227 652.318 402.976 652.986 403.614 653.753C404.579 654.925 405.212 656.256 406.33 657.346C408.399 659.378 411.74 660.215 414.714 660.292C416.43 660.311 418.145 660.229 419.852 660.048Z" fill="#6D8AD0"/>
<path d="M394.565 674.967C394.565 674.967 402.555 674.722 404.977 673.007C407.399 671.292 417.272 669.247 417.869 671.994C418.467 674.74 429.879 685.668 420.857 685.741C411.835 685.813 399.893 684.338 397.49 682.872C395.086 681.406 394.565 674.967 394.565 674.967Z" fill="#656380"/>
<path opacity="0.2" d="M421.002 684.804C411.98 684.877 400.038 683.397 397.634 681.935C395.824 680.818 395.077 676.822 394.832 674.976H394.565C394.565 674.976 395.072 681.419 397.476 682.881C399.88 684.343 411.821 685.822 420.843 685.75C423.446 685.75 424.347 684.804 424.297 683.433C423.935 684.252 422.944 684.768 421.002 684.804Z" fill="#6D8AD0"/>
<path d="M181.806 394.417L173.545 399.653L178.56 390.535C177.145 389.403 175.393 388.776 173.581 388.752H173.445C172.872 388.76 172.3 388.717 171.734 388.625L168.932 390.399L170.132 388.218C168.149 387.525 166.435 386.225 165.234 384.503L160.222 387.67L163.391 381.914C160.458 378.399 156.51 376.24 152.16 376.24C146.95 376.24 142.31 379.34 139.313 384.168C138.427 385.612 137.175 386.795 135.683 387.6C134.192 388.404 132.515 388.8 130.821 388.747H130.54C124.787 388.747 120.129 395.268 120.129 403.314C120.129 411.359 124.791 417.875 130.54 417.875C131.803 417.872 133.046 417.561 134.162 416.97C137.914 415.02 142.84 414.984 146.769 416.726C148.453 417.483 150.279 417.877 152.126 417.881C153.973 417.885 155.8 417.499 157.488 416.748C161.39 415.042 166.257 415.079 169.987 416.993C171.093 417.578 172.325 417.889 173.576 417.898C179.33 417.898 183.988 411.377 183.988 403.336C184.023 400.227 183.272 397.16 181.806 394.417Z" fill="#F2F2F2"/>
<path opacity="0.03" d="M166.229 415.726C163.224 415.154 160.116 415.492 157.303 416.694C155.616 417.444 153.789 417.829 151.943 417.825C150.096 417.821 148.272 417.428 146.588 416.671C142.654 414.929 137.729 414.966 133.976 416.916C132.86 417.507 131.617 417.817 130.355 417.821C125.244 417.821 120.993 412.671 120.106 405.884C121.127 405.14 121.994 404.206 122.659 403.133C125.674 398.309 130.296 395.2 135.506 395.2C140.717 395.2 145.302 398.264 148.299 403.037C149.193 404.48 150.445 405.667 151.932 406.484C153.42 407.302 155.094 407.721 156.791 407.703H156.909C160.983 407.707 164.514 410.97 166.229 415.726Z" fill="#6D8AD0"/>
<path d="M397.766 405.078L393.66 407.689L396.163 403.164C395.456 402.593 394.578 402.274 393.669 402.259H393.606C393.319 402.263 393.033 402.242 392.75 402.196L391.351 403.101L391.94 401.988C390.95 401.643 390.095 400.995 389.495 400.137L386.997 401.721L388.576 398.852C387.911 397.994 387.064 397.295 386.096 396.805C385.127 396.315 384.062 396.047 382.977 396.019C380.374 396.019 378.061 397.567 376.567 399.974C376.123 400.691 375.497 401.278 374.753 401.675C374.009 402.073 373.173 402.266 372.33 402.237H372.189C369.319 402.237 366.993 405.49 366.993 409.477C366.993 413.463 369.319 416.739 372.189 416.739C372.821 416.737 373.442 416.582 374 416.287C374.977 415.812 376.045 415.556 377.13 415.535C378.216 415.514 379.293 415.729 380.288 416.165C381.129 416.539 382.04 416.733 382.961 416.733C383.882 416.733 384.793 416.539 385.634 416.165C386.621 415.737 387.688 415.527 388.764 415.548C389.839 415.569 390.898 415.821 391.867 416.287C392.425 416.582 393.047 416.737 393.678 416.739C396.548 416.739 398.875 413.49 398.875 409.477C398.879 407.941 398.498 406.429 397.766 405.078Z" fill="#F2F2F2"/>
<path opacity="0.03" d="M390.002 415.708C388.504 415.425 386.955 415.593 385.552 416.192C384.711 416.566 383.8 416.76 382.879 416.76C381.958 416.76 381.048 416.566 380.206 416.192C379.211 415.756 378.133 415.541 377.047 415.562C375.96 415.583 374.891 415.84 373.914 416.314C373.356 416.61 372.735 416.766 372.103 416.767C369.55 416.767 367.432 414.201 366.988 410.816C367.496 410.448 367.929 409.988 368.265 409.459C369.758 407.051 372.076 405.508 374.675 405.508C377.273 405.508 379.559 407.033 381.053 409.413C381.498 410.133 382.123 410.726 382.865 411.133C383.608 411.541 384.443 411.75 385.29 411.739H385.358C387.39 411.707 389.133 413.337 390.002 415.708Z" fill="#6D8AD0"/>
<path d="M128.091 472.701L134.728 476.9L130.708 469.592C131.848 468.685 133.257 468.184 134.714 468.167H134.818C135.273 468.174 135.727 468.14 136.176 468.067L138.417 469.488L137.444 467.741C139.031 467.183 140.404 466.142 141.368 464.764L145.384 467.307L142.876 462.696C145.225 459.881 148.389 458.171 151.871 458.171C156.049 458.171 159.765 460.651 162.169 464.506C162.877 465.661 163.878 466.609 165.07 467.253C166.263 467.898 167.604 468.216 168.959 468.176H169.185C173.794 468.176 177.528 473.398 177.528 479.841C177.528 486.285 173.794 491.511 169.185 491.511C168.171 491.508 167.172 491.258 166.275 490.783C164.706 490.021 162.99 489.609 161.247 489.575C159.503 489.542 157.772 489.887 156.175 490.588C154.822 491.193 153.357 491.505 151.875 491.505C150.393 491.505 148.928 491.193 147.575 490.588C145.989 489.902 144.274 489.564 142.547 489.597C140.819 489.631 139.119 490.035 137.561 490.783C136.673 491.245 135.688 491.489 134.687 491.493C130.074 491.493 126.339 486.271 126.339 479.823C126.318 477.34 126.92 474.891 128.091 472.701Z" fill="#F2F2F2"/>
<path opacity="0.03" d="M140.563 489.774C142.971 489.32 145.46 489.591 147.715 490.552C149.068 491.157 150.533 491.469 152.015 491.469C153.497 491.469 154.963 491.157 156.316 490.552C157.914 489.851 159.645 489.506 161.389 489.539C163.134 489.573 164.85 489.985 166.42 490.747C167.315 491.221 168.312 491.471 169.326 491.475C173.423 491.475 176.827 487.353 177.537 481.914C176.72 481.316 176.025 480.566 175.491 479.706C173.088 475.841 169.371 473.371 165.193 473.371C161.015 473.371 157.348 475.823 154.944 479.651C154.229 480.805 153.228 481.754 152.039 482.408C150.849 483.062 149.511 483.398 148.154 483.385H148.05C144.763 483.353 141.939 485.968 140.563 489.774Z" fill="#6D8AD0"/>
</g>
<defs>
<clipPath id="clip0">
<rect width="551" height="375.682" fill="white"/>
</clipPath>
<clipPath id="clip1">
<rect width="501.568" height="330.864" fill="white" transform="translate(35.5909 375.023)"/>
</clipPath>
</defs>
</svg>
