<svg width="221" height="153" viewBox="0 0 221 153" fill="none" xmlns="http://www.w3.org/2000/svg">
<g clip-path="url(#clip0)">
<path opacity="0.1" d="M125.004 20.8292C110.838 20.8482 97.2031 16.8212 84.161 12.3477C71.119 7.8741 58.1774 2.86462 44.275 0.741867C35.334 -0.622627 25.1668 -0.4972 18.1777 4.45717C11.4501 9.22339 9.50198 17.112 8.56201 24.4001C7.85514 29.8827 7.52919 35.6372 10.1766 40.6524C12.0149 44.1339 15.1607 47.0035 17.378 50.3216C25.1175 61.8647 20.4632 76.61 12.9416 88.421C9.4148 93.9626 5.2835 99.2743 2.61711 105.133C-0.0492896 110.992 -1.14276 117.636 1.5767 123.419C4.27152 129.151 10.3586 133.311 16.8909 136.152C30.1566 141.933 45.6016 143.172 60.6316 143.649C93.9018 144.707 127.237 142.548 160.482 140.39C172.785 139.591 185.143 138.788 197.192 136.475C203.882 135.192 210.77 133.288 215.514 129.114C221.534 123.816 222.766 115.165 218.385 108.947C211.038 98.5179 191.664 96.551 186.396 85.2663C183.49 79.0539 185.996 71.9293 189.686 65.9411C197.599 53.0924 211.221 41.5836 211.451 27.2127C211.608 17.3438 204.524 7.71637 193.944 3.42714C182.854 -1.06542 167.733 0.0900268 159.963 8.46323C151.973 17.0892 137.512 20.8159 125.004 20.8292Z" fill="#FB726A"/>
<path d="M188.094 122.645C188.094 122.645 185.765 121.104 183.456 122.2C183.456 122.2 184.167 123.572 187.089 123.443L188.094 122.645Z" fill="#FB726A"/>
<path d="M188.389 122.726C188.389 122.726 189.098 125.433 187.32 127.274C187.32 127.274 186.252 126.159 187.32 123.426L188.389 122.726Z" fill="#FB726A"/>
<path d="M191.285 120.129C191.285 120.129 191.113 117.827 185.929 118.591C185.929 118.591 185.905 120.075 187.724 120.779C189.543 121.482 190.377 120.889 191.285 120.129Z" fill="#FB726A"/>
<path d="M191.611 120.113C191.611 120.113 193.802 120.818 191.848 125.693C191.848 125.693 190.402 125.37 190.142 123.43C189.883 121.489 190.652 120.82 191.611 120.113Z" fill="#FB726A"/>
<path d="M194.537 116.849C194.537 116.849 194.835 113.061 189.538 113.449C189.538 113.449 189.159 116.869 193.603 117.759L194.537 116.849Z" fill="#FB726A"/>
<path d="M198.037 112.573C198.037 112.573 197.311 108.28 192.016 109.559C192.016 109.559 191.998 113.27 197.173 113.595L198.037 112.573Z" fill="#FB726A"/>
<path d="M200.596 108.152C200.596 108.152 199.379 103.971 194.133 105.222C194.133 105.222 195.382 108.983 200.247 108.924L200.596 108.152Z" fill="#FB726A"/>
<path d="M203.025 103.835C203.025 103.835 201.837 99.4959 196.771 100.794C196.771 100.794 198.462 104.916 202.69 104.568L203.025 103.835Z" fill="#FB726A"/>
<path d="M204.59 99.7335C204.59 99.7335 203.677 94.4275 198.954 95.602C198.954 95.602 200.327 100.429 204.244 100.507L204.59 99.7335Z" fill="#FB726A"/>
<path d="M206.059 94.7791C206.059 94.7791 204.962 89.4313 200.184 90.9783C200.184 90.9783 202.057 96.0334 205.72 95.5107L206.059 94.7791Z" fill="#FB726A"/>
<path d="M206.961 90.1687C206.961 90.1687 205.22 84.819 201.526 84.9635C201.526 84.9635 203.305 90.6134 206.652 91.2348L206.961 90.1687Z" fill="#FB726A"/>
<path d="M207.545 85.6685C207.545 85.6685 205.65 79.2299 202.644 79.7259C202.644 79.7259 203.955 84.648 207.439 86.6719L207.545 85.6685Z" fill="#FB726A"/>
<path d="M207.875 80.2999C207.875 80.2999 206.097 74.935 203.137 74.7203C203.137 74.7203 204.346 79.9996 207.816 81.6948L207.875 80.2999Z" fill="#FB726A"/>
<path d="M208.233 75.2904C208.233 75.2904 206.017 69.9198 204.064 69.7982C204.064 69.7982 205.026 75.087 208.043 76.1722L208.233 75.2904Z" fill="#FB726A"/>
<path d="M208.477 70.6306C208.477 70.6306 207.115 64.7982 205.157 64.3136C205.157 64.3136 205.424 69.0856 208.28 71.0677L208.477 70.6306Z" fill="#FB726A"/>
<path d="M209.216 64.5265C209.216 64.5265 207.784 59.8762 206.197 59.1673C206.197 59.1673 206.51 64.65 208.851 65.6629L209.216 64.5265Z" fill="#FB726A"/>
<path d="M209.829 60.5356L210.117 52.3372C210.117 52.3372 207.151 58.5174 209.614 61.9742L209.829 60.5356Z" fill="#FB726A"/>
<path d="M212.118 52.3809C212.118 52.3809 214.253 46.3947 214.771 46.0602C214.771 46.0602 210.583 49.9446 210.992 54.9408L212.118 52.3809Z" fill="#FB726A"/>
<path d="M194.681 116.82C194.681 116.82 198.437 116.328 198.325 121.651C198.325 121.651 194.931 122.206 193.823 117.803L194.681 116.82Z" fill="#FB726A"/>
<path d="M198.215 112.428C198.215 112.428 202.555 112.415 202.195 117.863C202.195 117.863 198.551 118.517 197.349 113.458L198.215 112.428Z" fill="#FB726A"/>
<path d="M200.637 108.504C200.637 108.504 204.577 106.651 207.098 111.434C207.098 111.434 203.459 112.977 200.289 109.277L200.637 108.504Z" fill="#FB726A"/>
<path d="M203.112 103.874C203.112 103.874 207.147 101.904 209.516 106.575C209.516 106.575 205.312 108.027 202.779 104.614L203.112 103.874Z" fill="#FB726A"/>
<path d="M204.539 99.8494C204.539 99.8494 208.422 96.1303 211.521 99.8912C211.521 99.8912 207.554 102.953 204.361 100.678L204.539 99.8494Z" fill="#FB726A"/>
<path d="M205.839 94.6518C205.839 94.6518 209.745 90.851 212.819 94.8266C212.819 94.8266 208.435 97.949 205.699 95.4499L205.839 94.6518Z" fill="#FB726A"/>
<path d="M206.569 90.0167C206.569 90.0167 209.578 85.2656 213.122 86.3261C213.122 86.3261 209.999 91.3564 206.603 91.1322L206.569 90.0167Z" fill="#FB726A"/>
<path d="M207.456 85.6381C207.456 85.6381 210.488 79.6556 213.357 80.6971C213.357 80.6971 211.17 85.2961 207.378 86.6472L207.456 85.6381Z" fill="#FB726A"/>
<path d="M207.666 79.9882C207.666 79.9882 210.784 75.279 213.704 75.8548C213.704 75.8548 211.155 80.6305 207.363 81.3508L207.666 79.9882Z" fill="#FB726A"/>
<path d="M207.909 75.1859C207.909 75.1859 210.325 69.9008 212.288 69.8647C212.288 69.8647 211.128 75.1117 208.072 76.0829L207.909 75.1859Z" fill="#FB726A"/>
<path d="M208.383 70.5165C208.383 70.5165 211.068 65.165 213.086 65.1536C213.086 65.1536 211.712 69.7298 208.472 70.9859L208.383 70.5165Z" fill="#FB726A"/>
<path d="M208.786 64.8609C208.786 64.8609 210.795 60.433 212.459 59.9313C212.459 59.9313 211.454 65.3284 209.008 66.0354L208.786 64.8609Z" fill="#FB726A"/>
<path d="M210.067 60.3741L214.557 53.5155C214.557 53.5155 213.406 60.281 209.411 61.6873L210.067 60.3741Z" fill="#FB726A"/>
<path d="M213.149 52.934C213.149 52.934 218.366 49.3232 218.555 48.7398C218.555 48.7398 215.902 53.7968 210.975 54.69L213.149 52.934Z" fill="#FB726A"/>
<path d="M213.461 51.3091C213.461 51.3091 219.452 45.5338 220.981 45.5395C220.981 45.5395 216.041 45.7656 213.317 51.0013L213.461 51.3091Z" fill="#FB726A"/>
<path d="M208.845 65.718L209.063 65.7465C210.189 56.9116 211.83 51.6835 213.683 51.0431L213.611 50.834C211.646 51.5182 209.993 56.6664 208.845 65.718Z" fill="#444053"/>
<path d="M207.188 86.8468L207.518 86.8734C207.588 86.0486 207.641 85.2048 207.677 84.3629C207.992 77.0502 208.479 70.3341 209.12 65.2999L208.93 65.0624C208.288 70.108 207.662 77.0254 207.348 84.3496C207.312 85.1858 207.259 86.0258 207.188 86.8468Z" fill="#444053"/>
<path d="M181.946 126.86C182.003 126.835 187.807 124.235 193.832 118.036C197.362 114.406 200.294 110.236 202.521 105.684C205.307 99.9957 207.005 93.006 207.573 86.2159L207.23 86.3774C205.951 101.619 199.032 112.033 193.531 117.706C187.565 123.85 181.825 126.423 181.768 126.447L181.946 126.86Z" fill="#444053"/>
<path d="M196.976 16.1972H14.8803C14.45 16.1972 14.0374 16.3686 13.7332 16.6737C13.429 16.9787 13.2581 17.3925 13.2581 17.824V22.5636H198.598V17.824C198.598 17.3925 198.427 16.9787 198.123 16.6737C197.819 16.3686 197.406 16.1972 196.976 16.1972Z" fill="#3F3D56"/>
<path d="M13.2581 22.5636V129.222C13.2581 130.092 13.6027 130.926 14.2161 131.541C14.8295 132.157 15.6615 132.502 16.529 132.502H195.327C196.195 132.502 197.027 132.157 197.64 131.541C198.253 130.926 198.598 130.092 198.598 129.222V22.5636H13.2581Z" fill="white"/>
<path opacity="0.8" d="M16.1936 20.093C16.6122 20.093 16.9516 19.7527 16.9516 19.3329C16.9516 18.913 16.6122 18.5727 16.1936 18.5727C15.7749 18.5727 15.4355 18.913 15.4355 19.3329C15.4355 19.7527 15.7749 20.093 16.1936 20.093Z" fill="#FA5959"/>
<path opacity="0.8" d="M18.2782 20.093C18.6968 20.093 19.0362 19.7527 19.0362 19.3329C19.0362 18.913 18.6968 18.5727 18.2782 18.5727C17.8595 18.5727 17.5201 18.913 17.5201 19.3329C17.5201 19.7527 17.8595 20.093 18.2782 20.093Z" fill="#FED253"/>
<path opacity="0.8" d="M20.3628 20.093C20.7814 20.093 21.1208 19.7527 21.1208 19.3329C21.1208 18.913 20.7814 18.5727 20.3628 18.5727C19.9441 18.5727 19.6047 18.913 19.6047 19.3329C19.6047 19.7527 19.9441 20.093 20.3628 20.093Z" fill="#8CCF4D"/>
<path opacity="0.05" d="M179.441 40.3476H30.4863V106.029H179.441V40.3476Z" fill="black"/>
<path d="M178.304 40.8455H31.6234V105.079H178.304V40.8455Z" fill="#3F3D56"/>
<path d="M71.6098 57.3771C68.7237 57.3771 65.9025 58.2354 63.5028 59.8433C61.1031 61.4512 59.2328 63.7366 58.1284 66.4104C57.0239 69.0843 56.7349 72.0265 57.298 74.8651C57.861 77.7036 59.2508 80.311 61.2915 82.3575C63.3323 84.404 65.9324 85.7976 68.763 86.3623C71.5936 86.9269 74.5276 86.6371 77.194 85.5296C79.8604 84.422 82.1394 82.5464 83.7428 80.14C85.3462 77.7336 86.202 74.9044 86.202 72.0103C86.202 70.0886 85.8246 68.1858 85.0912 66.4104C84.3579 64.635 83.2831 63.0219 81.928 61.6631C80.573 60.3043 78.9644 59.2264 77.194 58.491C75.4236 57.7556 73.5261 57.3771 71.6098 57.3771ZM74.2269 72.3619V79.2907H69.0685V72.3619C68.3546 71.82 67.8285 71.067 67.5644 70.2091C67.3003 69.3513 67.3116 68.4319 67.5966 67.5808C67.8816 66.7297 68.4259 65.9898 69.1528 65.4657C69.8797 64.9415 70.7524 64.6596 71.6477 64.6596C72.543 64.6596 73.4157 64.9415 74.1426 65.4657C74.8694 65.9898 75.4138 66.7297 75.6988 67.5808C75.9838 68.4319 75.9951 69.3513 75.731 70.2091C75.4669 71.067 74.9408 71.82 74.2269 72.3619Z" fill="#FB726A"/>
<path opacity="0.05" d="M71.6098 57.3771C68.7237 57.3771 65.9025 58.2354 63.5028 59.8433C61.1031 61.4512 59.2328 63.7366 58.1284 66.4104C57.0239 69.0843 56.7349 72.0265 57.298 74.8651C57.861 77.7036 59.2508 80.311 61.2915 82.3575C63.3323 84.404 65.9324 85.7976 68.763 86.3623C71.5936 86.9269 74.5276 86.6371 77.194 85.5296C79.8604 84.422 82.1394 82.5464 83.7428 80.14C85.3462 77.7336 86.202 74.9044 86.202 72.0103C86.202 70.0886 85.8246 68.1858 85.0912 66.4104C84.3579 64.635 83.2831 63.0219 81.928 61.6631C80.573 60.3043 78.9644 59.2264 77.194 58.491C75.4236 57.7556 73.5261 57.3771 71.6098 57.3771ZM74.2269 72.3619V79.2907H69.0685V72.3619C68.3546 71.82 67.8285 71.067 67.5644 70.2091C67.3003 69.3513 67.3116 68.4319 67.5966 67.5808C67.8816 66.7297 68.4259 65.9898 69.1528 65.4657C69.8797 64.9415 70.7524 64.6596 71.6477 64.6596C72.543 64.6596 73.4157 64.9415 74.1426 65.4657C74.8694 65.9898 75.4138 66.7297 75.6988 67.5808C75.9838 68.4319 75.9951 69.3513 75.731 70.2091C75.4669 71.067 74.9408 71.82 74.2269 72.3619Z" fill="black"/>
<path d="M71.6098 53.1962C67.8991 53.1962 64.2718 54.2997 61.1865 56.367C58.1012 58.4343 55.6965 61.3726 54.2765 64.8104C52.8565 68.2483 52.485 72.0311 53.2089 75.6807C53.9328 79.3303 55.7197 82.6826 58.3435 85.3138C60.9673 87.945 64.3103 89.7369 67.9496 90.4628C71.589 91.1887 75.3613 90.8162 78.7895 89.3922C82.2177 87.9682 85.1478 85.5567 87.2093 82.4628C89.2709 79.3688 90.3712 75.7313 90.3712 72.0103C90.3712 67.0205 88.3946 62.2351 84.8761 58.7067C81.3577 55.1784 76.5856 53.1962 71.6098 53.1962ZM74.9736 72.4626V81.3698H68.3408V72.4626C67.4226 71.7658 66.7459 70.7974 66.4061 69.6942C66.0664 68.5909 66.0807 67.4085 66.4472 66.3139C66.8137 65.2192 67.5137 64.2677 68.4486 63.5936C69.3834 62.9194 70.5057 62.5568 71.6572 62.5568C72.8086 62.5568 73.931 62.9194 74.8658 63.5936C75.8006 64.2677 76.5007 65.2192 76.8672 66.3139C77.2336 67.4085 77.248 68.5909 76.9082 69.6942C76.5685 70.7974 75.8918 71.7658 74.9736 72.4626Z" fill="#FB726A"/>
<path d="M158.784 69.5417H98.1411V76.0031H158.784V69.5417Z" fill="white"/>
<path d="M158.784 81.3242H145.708V87.7856H158.784V81.3242Z" fill="#FB726A"/>
<path d="M104.111 72.6754H103.013L103.989 71.6986C104.007 71.6805 104.017 71.6564 104.017 71.6312C104.017 71.606 104.007 71.5818 103.989 71.5637C103.981 71.5548 103.97 71.5477 103.959 71.5429C103.947 71.5381 103.935 71.5356 103.922 71.5356C103.91 71.5356 103.897 71.5381 103.886 71.5429C103.874 71.5477 103.864 71.5548 103.855 71.5637L102.879 72.5424V71.4402C102.879 71.415 102.869 71.3908 102.851 71.373C102.833 71.3552 102.809 71.3452 102.784 71.3452C102.759 71.3456 102.735 71.3558 102.718 71.3735C102.7 71.3912 102.69 71.4151 102.689 71.4402V72.5424L101.715 71.558C101.706 71.5491 101.696 71.542 101.684 71.5372C101.673 71.5324 101.661 71.5299 101.648 71.5299C101.635 71.5299 101.623 71.5324 101.612 71.5372C101.6 71.542 101.59 71.5491 101.581 71.558C101.563 71.5761 101.553 71.6003 101.553 71.6255C101.553 71.6507 101.563 71.6748 101.581 71.6929L102.557 72.6697H101.458C101.433 72.6702 101.409 72.6804 101.391 72.6981C101.373 72.7158 101.363 72.7397 101.363 72.7648C101.363 72.79 101.373 72.8141 101.391 72.832C101.408 72.8498 101.432 72.8598 101.458 72.8598H102.557L101.581 73.8385C101.563 73.8566 101.553 73.8808 101.553 73.906C101.553 73.9311 101.563 73.9553 101.581 73.9734C101.599 73.9905 101.623 74 101.648 74C101.673 74 101.697 73.9905 101.715 73.9734L102.689 72.9947V74.0951C102.689 74.1203 102.699 74.1444 102.717 74.1622C102.735 74.1801 102.759 74.1901 102.784 74.1901C102.809 74.1901 102.833 74.1801 102.851 74.1622C102.869 74.1444 102.879 74.1203 102.879 74.0951V72.9947L103.855 73.9734C103.873 73.9905 103.897 74 103.922 74C103.947 74 103.971 73.9905 103.989 73.9734C104.007 73.9553 104.017 73.9311 104.017 73.906C104.017 73.8808 104.007 73.8566 103.989 73.8385L103.013 72.8598H104.111C104.136 72.8598 104.16 72.8498 104.178 72.832C104.195 72.8141 104.205 72.79 104.205 72.7648C104.204 72.7406 104.193 72.7178 104.176 72.7012C104.158 72.6846 104.135 72.6754 104.111 72.6754Z" fill="#FB726A"/>
<path d="M108.09 72.6754H106.993L107.969 71.6986C107.987 71.6805 107.996 71.6564 107.996 71.6312C107.996 71.606 107.987 71.5818 107.969 71.5637C107.96 71.5548 107.95 71.5477 107.938 71.5429C107.927 71.5381 107.914 71.5356 107.902 71.5356C107.889 71.5356 107.877 71.5381 107.865 71.5429C107.854 71.5477 107.843 71.5548 107.835 71.5637L106.859 72.5424V71.4402C106.859 71.415 106.849 71.3908 106.831 71.373C106.813 71.3552 106.789 71.3452 106.764 71.3452C106.739 71.3456 106.715 71.3558 106.697 71.3735C106.68 71.3912 106.67 71.4151 106.669 71.4402V72.5424L105.695 71.558C105.686 71.5491 105.676 71.542 105.664 71.5372C105.653 71.5324 105.64 71.5299 105.628 71.5299C105.615 71.5299 105.603 71.5324 105.591 71.5372C105.58 71.542 105.569 71.5491 105.56 71.558C105.543 71.5761 105.533 71.6003 105.533 71.6255C105.533 71.6507 105.543 71.6748 105.56 71.6929L106.536 72.6697H105.437C105.412 72.6702 105.388 72.6804 105.371 72.6981C105.353 72.7158 105.343 72.7397 105.343 72.7648C105.343 72.79 105.353 72.8141 105.37 72.832C105.388 72.8498 105.412 72.8598 105.437 72.8598H106.536L105.56 73.8385C105.543 73.8566 105.533 73.8808 105.533 73.906C105.533 73.9311 105.543 73.9553 105.56 73.9734C105.579 73.9905 105.603 74 105.628 74C105.653 74 105.677 73.9905 105.695 73.9734L106.669 72.9947V74.0951C106.669 74.1203 106.679 74.1444 106.697 74.1622C106.715 74.1801 106.739 74.1901 106.764 74.1901C106.789 74.1901 106.813 74.1801 106.831 74.1622C106.849 74.1444 106.859 74.1203 106.859 74.0951V72.9947L107.835 73.9734C107.853 73.9905 107.877 74 107.902 74C107.927 74 107.951 73.9905 107.969 73.9734C107.987 73.9553 107.996 73.9311 107.996 73.906C107.996 73.8808 107.987 73.8566 107.969 73.8385L106.993 72.8598H108.09C108.116 72.8598 108.14 72.8498 108.157 72.832C108.175 72.8141 108.185 72.79 108.185 72.7648C108.184 72.7406 108.173 72.7178 108.155 72.7012C108.138 72.6846 108.115 72.6754 108.09 72.6754Z" fill="#FB726A"/>
<path d="M112.07 72.6754H110.973L111.949 71.6986C111.966 71.6805 111.976 71.6564 111.976 71.6312C111.976 71.606 111.966 71.5818 111.949 71.5637C111.94 71.5548 111.929 71.5477 111.918 71.5429C111.906 71.5381 111.894 71.5356 111.881 71.5356C111.869 71.5356 111.857 71.5381 111.845 71.5429C111.833 71.5477 111.823 71.5548 111.814 71.5637L110.838 72.5424V71.4402C110.838 71.415 110.828 71.3908 110.81 71.373C110.793 71.3552 110.769 71.3452 110.743 71.3452C110.718 71.3456 110.695 71.3558 110.677 71.3735C110.659 71.3912 110.649 71.4151 110.649 71.4402V72.5424L109.675 71.558C109.666 71.5491 109.655 71.542 109.644 71.5372C109.632 71.5324 109.62 71.5299 109.607 71.5299C109.595 71.5299 109.582 71.5324 109.571 71.5372C109.559 71.542 109.549 71.5491 109.54 71.558C109.523 71.5761 109.513 71.6003 109.513 71.6255C109.513 71.6507 109.523 71.6748 109.54 71.6929L110.516 72.6697H109.417C109.392 72.6702 109.368 72.6804 109.35 72.6981C109.333 72.7158 109.323 72.7397 109.322 72.7648C109.322 72.79 109.332 72.8141 109.35 72.832C109.368 72.8498 109.392 72.8598 109.417 72.8598H110.516L109.54 73.8385C109.523 73.8566 109.513 73.8808 109.513 73.906C109.513 73.9311 109.523 73.9553 109.54 73.9734C109.558 73.9905 109.582 74 109.607 74C109.632 74 109.656 73.9905 109.675 73.9734L110.649 72.9947V74.0951C110.649 74.1203 110.659 74.1444 110.676 74.1622C110.694 74.1801 110.718 74.1901 110.743 74.1901C110.769 74.1901 110.793 74.1801 110.81 74.1622C110.828 74.1444 110.838 74.1203 110.838 74.0951V72.9947L111.814 73.9734C111.832 73.9905 111.856 74 111.881 74C111.906 74 111.931 73.9905 111.949 73.9734C111.966 73.9553 111.976 73.9311 111.976 73.906C111.976 73.8808 111.966 73.8566 111.949 73.8385L110.973 72.8598H112.07C112.095 72.8598 112.119 72.8498 112.137 72.832C112.155 72.8141 112.165 72.79 112.165 72.7648C112.163 72.7406 112.153 72.7178 112.135 72.7012C112.117 72.6846 112.094 72.6754 112.07 72.6754Z" fill="#FB726A"/>
<path d="M116.05 72.6754H114.952L115.928 71.6986C115.946 71.6805 115.956 71.6564 115.956 71.6312C115.956 71.606 115.946 71.5818 115.928 71.5637C115.92 71.5548 115.909 71.5477 115.898 71.5429C115.886 71.5381 115.874 71.5356 115.861 71.5356C115.849 71.5356 115.836 71.5381 115.825 71.5429C115.813 71.5477 115.803 71.5548 115.794 71.5637L114.818 72.5424V71.4402C114.818 71.415 114.808 71.3908 114.79 71.373C114.772 71.3552 114.748 71.3452 114.723 71.3452C114.698 71.3456 114.674 71.3558 114.657 71.3735C114.639 71.3912 114.629 71.4151 114.628 71.4402V72.5424L113.654 71.558C113.646 71.5491 113.635 71.542 113.624 71.5372C113.612 71.5324 113.6 71.5299 113.587 71.5299C113.575 71.5299 113.562 71.5324 113.551 71.5372C113.539 71.542 113.529 71.5491 113.52 71.558C113.502 71.5761 113.493 71.6003 113.493 71.6255C113.493 71.6507 113.502 71.6748 113.52 71.6929L114.496 72.6697H113.397C113.372 72.6702 113.348 72.6804 113.33 72.6981C113.312 72.7158 113.302 72.7397 113.302 72.7648C113.302 72.79 113.312 72.8141 113.33 72.832C113.347 72.8498 113.372 72.8598 113.397 72.8598H114.496L113.52 73.8385C113.502 73.8566 113.493 73.8808 113.493 73.906C113.493 73.9311 113.502 73.9553 113.52 73.9734C113.538 73.9905 113.562 74 113.587 74C113.612 74 113.636 73.9905 113.654 73.9734L114.628 72.9947V74.0951C114.628 74.1203 114.638 74.1444 114.656 74.1622C114.674 74.1801 114.698 74.1901 114.723 74.1901C114.748 74.1901 114.772 74.1801 114.79 74.1622C114.808 74.1444 114.818 74.1203 114.818 74.0951V72.9947L115.794 73.9734C115.812 73.9905 115.836 74 115.861 74C115.886 74 115.91 73.9905 115.928 73.9734C115.946 73.9553 115.956 73.9311 115.956 73.906C115.956 73.8808 115.946 73.8566 115.928 73.8385L114.952 72.8598H116.05C116.075 72.8598 116.099 72.8498 116.117 72.832C116.135 72.8141 116.145 72.79 116.145 72.7648C116.143 72.7406 116.132 72.7178 116.115 72.7012C116.097 72.6846 116.074 72.6754 116.05 72.6754Z" fill="#FB726A"/>
<path d="M120.03 72.6754H118.932L119.908 71.6986C119.926 71.6805 119.935 71.6564 119.935 71.6312C119.935 71.606 119.926 71.5818 119.908 71.5637C119.899 71.5548 119.889 71.5477 119.877 71.5429C119.866 71.5381 119.853 71.5356 119.841 71.5356C119.828 71.5356 119.816 71.5381 119.804 71.5429C119.793 71.5477 119.782 71.5548 119.774 71.5637L118.798 72.5424V71.4402C118.798 71.415 118.788 71.3908 118.77 71.373C118.752 71.3552 118.728 71.3452 118.703 71.3452C118.678 71.3456 118.654 71.3558 118.636 71.3735C118.619 71.3912 118.609 71.4151 118.608 71.4402V72.5424L117.634 71.558C117.625 71.5491 117.615 71.542 117.603 71.5372C117.592 71.5324 117.579 71.5299 117.567 71.5299C117.554 71.5299 117.542 71.5324 117.53 71.5372C117.519 71.542 117.508 71.5491 117.5 71.558C117.482 71.5761 117.472 71.6003 117.472 71.6255C117.472 71.6507 117.482 71.6748 117.5 71.6929L118.476 72.6697H117.376C117.351 72.6702 117.328 72.6804 117.31 72.6981C117.292 72.7158 117.282 72.7397 117.282 72.7648C117.282 72.79 117.292 72.8141 117.309 72.832C117.327 72.8498 117.351 72.8598 117.376 72.8598H118.476L117.5 73.8385C117.482 73.8566 117.472 73.8808 117.472 73.906C117.472 73.9311 117.482 73.9553 117.5 73.9734C117.518 73.9905 117.542 74 117.567 74C117.592 74 117.616 73.9905 117.634 73.9734L118.608 72.9947V74.0951C118.608 74.1203 118.618 74.1444 118.636 74.1622C118.654 74.1801 118.678 74.1901 118.703 74.1901C118.728 74.1901 118.752 74.1801 118.77 74.1622C118.788 74.1444 118.798 74.1203 118.798 74.0951V72.9947L119.774 73.9734C119.792 73.9905 119.816 74 119.841 74C119.866 74 119.89 73.9905 119.908 73.9734C119.926 73.9553 119.935 73.9311 119.935 73.906C119.935 73.8808 119.926 73.8566 119.908 73.8385L118.932 72.8598H120.03C120.055 72.8598 120.079 72.8498 120.096 72.832C120.114 72.8141 120.124 72.79 120.124 72.7648C120.123 72.7406 120.112 72.7178 120.095 72.7012C120.077 72.6846 120.054 72.6754 120.03 72.6754Z" fill="#FB726A"/>
<path d="M124.009 72.6754H122.912L123.888 71.6986C123.905 71.6805 123.915 71.6564 123.915 71.6312C123.915 71.606 123.905 71.5818 123.888 71.5637C123.879 71.5548 123.869 71.5477 123.857 71.5429C123.845 71.5381 123.833 71.5356 123.821 71.5356C123.808 71.5356 123.796 71.5381 123.784 71.5429C123.773 71.5477 123.762 71.5548 123.753 71.5637L122.777 72.5424V71.4402C122.777 71.415 122.767 71.3908 122.75 71.373C122.732 71.3552 122.708 71.3452 122.683 71.3452C122.658 71.3456 122.634 71.3558 122.616 71.3735C122.598 71.3912 122.588 71.4151 122.588 71.4402V72.5424L121.614 71.558C121.605 71.5491 121.594 71.542 121.583 71.5372C121.571 71.5324 121.559 71.5299 121.546 71.5299C121.534 71.5299 121.522 71.5324 121.51 71.5372C121.498 71.542 121.488 71.5491 121.479 71.558C121.462 71.5761 121.452 71.6003 121.452 71.6255C121.452 71.6507 121.462 71.6748 121.479 71.6929L122.455 72.6697H121.356C121.331 72.6702 121.307 72.6804 121.29 72.6981C121.272 72.7158 121.262 72.7397 121.261 72.7648C121.261 72.79 121.271 72.8141 121.289 72.832C121.307 72.8498 121.331 72.8598 121.356 72.8598H122.455L121.479 73.8385C121.462 73.8566 121.452 73.8808 121.452 73.906C121.452 73.9311 121.462 73.9553 121.479 73.9734C121.497 73.9905 121.521 74 121.546 74C121.571 74 121.595 73.9905 121.614 73.9734L122.588 72.9947V74.0951C122.588 74.1203 122.598 74.1444 122.616 74.1622C122.633 74.1801 122.657 74.1901 122.683 74.1901C122.708 74.1901 122.732 74.1801 122.75 74.1622C122.767 74.1444 122.777 74.1203 122.777 74.0951V72.9947L123.753 73.9734C123.772 73.9905 123.796 74 123.821 74C123.846 74 123.87 73.9905 123.888 73.9734C123.905 73.9553 123.915 73.9311 123.915 73.906C123.915 73.8808 123.905 73.8566 123.888 73.8385L122.912 72.8598H124.009C124.034 72.8598 124.058 72.8498 124.076 72.832C124.094 72.8141 124.104 72.79 124.104 72.7648C124.102 72.7406 124.092 72.7178 124.074 72.7012C124.057 72.6846 124.033 72.6754 124.009 72.6754Z" fill="#FB726A"/>
<path d="M127.989 72.6754H126.892L127.868 71.6986C127.885 71.6805 127.895 71.6564 127.895 71.6312C127.895 71.606 127.885 71.5818 127.868 71.5637C127.859 71.5548 127.848 71.5477 127.837 71.5429C127.825 71.5381 127.813 71.5356 127.8 71.5356C127.788 71.5356 127.775 71.5381 127.764 71.5429C127.752 71.5477 127.742 71.5548 127.733 71.5637L126.757 72.5424V71.4402C126.757 71.415 126.747 71.3908 126.729 71.373C126.712 71.3552 126.687 71.3452 126.662 71.3452C126.637 71.3456 126.613 71.3558 126.596 71.3735C126.578 71.3912 126.568 71.4151 126.568 71.4402V72.5424L125.593 71.558C125.585 71.5491 125.574 71.542 125.563 71.5372C125.551 71.5324 125.539 71.5299 125.526 71.5299C125.514 71.5299 125.501 71.5324 125.49 71.5372C125.478 71.542 125.468 71.5491 125.459 71.558C125.441 71.5761 125.432 71.6003 125.432 71.6255C125.432 71.6507 125.441 71.6748 125.459 71.6929L126.435 72.6697H125.336C125.311 72.6702 125.287 72.6804 125.269 72.6981C125.252 72.7158 125.241 72.7397 125.241 72.7648C125.241 72.79 125.251 72.8141 125.269 72.832C125.286 72.8498 125.311 72.8598 125.336 72.8598H126.435L125.459 73.8385C125.441 73.8566 125.432 73.8808 125.432 73.906C125.432 73.9311 125.441 73.9553 125.459 73.9734C125.477 73.9905 125.501 74 125.526 74C125.551 74 125.575 73.9905 125.593 73.9734L126.568 72.9947V74.0951C126.568 74.1203 126.578 74.1444 126.595 74.1622C126.613 74.1801 126.637 74.1901 126.662 74.1901C126.687 74.1901 126.712 74.1801 126.729 74.1622C126.747 74.1444 126.757 74.1203 126.757 74.0951V72.9947L127.733 73.9734C127.751 73.9905 127.775 74 127.8 74C127.825 74 127.849 73.9905 127.868 73.9734C127.885 73.9553 127.895 73.9311 127.895 73.906C127.895 73.8808 127.885 73.8566 127.868 73.8385L126.892 72.8598H127.989C128.014 72.8598 128.038 72.8498 128.056 72.832C128.074 72.8141 128.084 72.79 128.084 72.7648C128.082 72.7406 128.072 72.7178 128.054 72.7012C128.036 72.6846 128.013 72.6754 127.989 72.6754Z" fill="#FB726A"/>
<path d="M131.969 72.6754H130.871L131.847 71.6986C131.865 71.6805 131.875 71.6564 131.875 71.6312C131.875 71.606 131.865 71.5818 131.847 71.5637C131.839 71.5548 131.828 71.5477 131.816 71.5429C131.805 71.5381 131.793 71.5356 131.78 71.5356C131.768 71.5356 131.755 71.5381 131.744 71.5429C131.732 71.5477 131.722 71.5548 131.713 71.5637L130.737 72.5424V71.4402C130.737 71.415 130.727 71.3908 130.709 71.373C130.691 71.3552 130.667 71.3452 130.642 71.3452C130.617 71.3456 130.593 71.3558 130.576 71.3735C130.558 71.3912 130.548 71.4151 130.547 71.4402V72.5424L129.573 71.558C129.564 71.5491 129.554 71.542 129.542 71.5372C129.531 71.5324 129.518 71.5299 129.506 71.5299C129.493 71.5299 129.481 71.5324 129.469 71.5372C129.458 71.542 129.447 71.5491 129.439 71.558C129.421 71.5761 129.411 71.6003 129.411 71.6255C129.411 71.6507 129.421 71.6748 129.439 71.6929L130.415 72.6697H129.315C129.29 72.6702 129.267 72.6804 129.249 72.6981C129.231 72.7158 129.221 72.7397 129.221 72.7648C129.221 72.79 129.231 72.8141 129.248 72.832C129.266 72.8498 129.29 72.8598 129.315 72.8598H130.415L129.439 73.8385C129.421 73.8566 129.411 73.8808 129.411 73.906C129.411 73.9311 129.421 73.9553 129.439 73.9734C129.457 73.9905 129.481 74 129.506 74C129.531 74 129.555 73.9905 129.573 73.9734L130.547 72.9947V74.0951C130.547 74.1203 130.557 74.1444 130.575 74.1622C130.593 74.1801 130.617 74.1901 130.642 74.1901C130.667 74.1901 130.691 74.1801 130.709 74.1622C130.727 74.1444 130.737 74.1203 130.737 74.0951V72.9947L131.713 73.9734C131.731 73.9905 131.755 74 131.78 74C131.805 74 131.829 73.9905 131.847 73.9734C131.865 73.9553 131.875 73.9311 131.875 73.906C131.875 73.8808 131.865 73.8566 131.847 73.8385L130.871 72.8598H131.969C131.994 72.8598 132.018 72.8498 132.036 72.832C132.053 72.8141 132.063 72.79 132.063 72.7648C132.062 72.7406 132.051 72.7178 132.034 72.7012C132.016 72.6846 131.993 72.6754 131.969 72.6754Z" fill="#FB726A"/>
<path d="M135.948 72.6754H134.851L135.827 71.6986C135.844 71.6805 135.854 71.6564 135.854 71.6312C135.854 71.606 135.844 71.5818 135.827 71.5637C135.818 71.5548 135.808 71.5477 135.796 71.5429C135.785 71.5381 135.772 71.5356 135.76 71.5356C135.747 71.5356 135.735 71.5381 135.723 71.5429C135.712 71.5477 135.701 71.5548 135.692 71.5637L134.716 72.5424V71.4402C134.716 71.415 134.706 71.3908 134.689 71.373C134.671 71.3552 134.647 71.3452 134.622 71.3452C134.597 71.3456 134.573 71.3558 134.555 71.3735C134.537 71.3912 134.527 71.4151 134.527 71.4402V72.5424L133.553 71.558C133.544 71.5491 133.534 71.542 133.522 71.5372C133.51 71.5324 133.498 71.5299 133.486 71.5299C133.473 71.5299 133.461 71.5324 133.449 71.5372C133.438 71.542 133.427 71.5491 133.418 71.558C133.401 71.5761 133.391 71.6003 133.391 71.6255C133.391 71.6507 133.401 71.6748 133.418 71.6929L134.394 72.6697H133.295C133.27 72.6702 133.246 72.6804 133.229 72.6981C133.211 72.7158 133.201 72.7397 133.2 72.7648C133.2 72.79 133.21 72.8141 133.228 72.832C133.246 72.8498 133.27 72.8598 133.295 72.8598H134.394L133.418 73.8385C133.401 73.8566 133.391 73.8808 133.391 73.906C133.391 73.9311 133.401 73.9553 133.418 73.9734C133.436 73.9905 133.461 74 133.486 74C133.51 74 133.535 73.9905 133.553 73.9734L134.527 72.9947V74.0951C134.527 74.1203 134.537 74.1444 134.555 74.1622C134.572 74.1801 134.596 74.1901 134.622 74.1901C134.647 74.1901 134.671 74.1801 134.689 74.1622C134.706 74.1444 134.716 74.1203 134.716 74.0951V72.9947L135.692 73.9734C135.711 73.9905 135.735 74 135.76 74C135.785 74 135.809 73.9905 135.827 73.9734C135.844 73.9553 135.854 73.9311 135.854 73.906C135.854 73.8808 135.844 73.8566 135.827 73.8385L134.851 72.8598H135.948C135.973 72.8598 135.997 72.8498 136.015 72.832C136.033 72.8141 136.043 72.79 136.043 72.7648C136.041 72.7406 136.031 72.7178 136.013 72.7012C135.996 72.6846 135.972 72.6754 135.948 72.6754Z" fill="#FB726A"/>
<path d="M139.928 72.6754H138.831L139.807 71.6986C139.824 71.6805 139.834 71.6564 139.834 71.6312C139.834 71.606 139.824 71.5818 139.807 71.5637C139.798 71.5548 139.787 71.5477 139.776 71.5429C139.764 71.5381 139.752 71.5356 139.739 71.5356C139.727 71.5356 139.714 71.5381 139.703 71.5429C139.691 71.5477 139.681 71.5548 139.672 71.5637L138.696 72.5424V71.4402C138.696 71.415 138.686 71.3908 138.668 71.373C138.651 71.3552 138.627 71.3452 138.601 71.3452C138.576 71.3456 138.553 71.3558 138.535 71.3735C138.517 71.3912 138.507 71.4151 138.507 71.4402V72.5424L137.533 71.558C137.524 71.5491 137.513 71.542 137.502 71.5372C137.49 71.5324 137.478 71.5299 137.465 71.5299C137.453 71.5299 137.44 71.5324 137.429 71.5372C137.417 71.542 137.407 71.5491 137.398 71.558C137.381 71.5761 137.371 71.6003 137.371 71.6255C137.371 71.6507 137.381 71.6748 137.398 71.6929L138.374 72.6697H137.275C137.25 72.6702 137.226 72.6804 137.208 72.6981C137.191 72.7158 137.181 72.7397 137.18 72.7648C137.18 72.79 137.19 72.8141 137.208 72.832C137.226 72.8498 137.25 72.8598 137.275 72.8598H138.374L137.398 73.8385C137.381 73.8566 137.371 73.8808 137.371 73.906C137.371 73.9311 137.381 73.9553 137.398 73.9734C137.416 73.9905 137.44 74 137.465 74C137.49 74 137.514 73.9905 137.533 73.9734L138.507 72.9947V74.0951C138.507 74.1203 138.517 74.1444 138.534 74.1622C138.552 74.1801 138.576 74.1901 138.601 74.1901C138.627 74.1901 138.651 74.1801 138.668 74.1622C138.686 74.1444 138.696 74.1203 138.696 74.0951V72.9947L139.672 73.9734C139.69 73.9905 139.714 74 139.739 74C139.764 74 139.788 73.9905 139.807 73.9734C139.824 73.9553 139.834 73.9311 139.834 73.906C139.834 73.8808 139.824 73.8566 139.807 73.8385L138.831 72.8598H139.928C139.953 72.8598 139.977 72.8498 139.995 72.832C140.013 72.8141 140.023 72.79 140.023 72.7648C140.021 72.7406 140.011 72.7178 139.993 72.7012C139.975 72.6846 139.952 72.6754 139.928 72.6754Z" fill="#FB726A"/>
<path d="M143.908 72.6754H142.81L143.786 71.6986C143.804 71.6805 143.813 71.6564 143.813 71.6312C143.813 71.606 143.804 71.5818 143.786 71.5637C143.777 71.5548 143.767 71.5477 143.755 71.5429C143.744 71.5381 143.731 71.5356 143.719 71.5356C143.706 71.5356 143.694 71.5381 143.683 71.5429C143.671 71.5477 143.66 71.5548 143.652 71.5637L142.676 72.5424V71.4402C142.676 71.415 142.666 71.3908 142.648 71.373C142.63 71.3552 142.606 71.3452 142.581 71.3452C142.556 71.3456 142.532 71.3558 142.514 71.3735C142.497 71.3912 142.487 71.4151 142.486 71.4402V72.5424L141.512 71.558C141.503 71.5491 141.493 71.542 141.481 71.5372C141.47 71.5324 141.457 71.5299 141.445 71.5299C141.432 71.5299 141.42 71.5324 141.408 71.5372C141.397 71.542 141.386 71.5491 141.378 71.558C141.36 71.5761 141.35 71.6003 141.35 71.6255C141.35 71.6507 141.36 71.6748 141.378 71.6929L142.354 72.6697H141.254C141.229 72.6702 141.206 72.6804 141.188 72.6981C141.17 72.7158 141.16 72.7397 141.16 72.7648C141.16 72.79 141.17 72.8141 141.187 72.832C141.205 72.8498 141.229 72.8598 141.254 72.8598H142.354L141.378 73.8385C141.36 73.8566 141.35 73.8808 141.35 73.906C141.35 73.9311 141.36 73.9553 141.378 73.9734C141.396 73.9905 141.42 74 141.445 74C141.47 74 141.494 73.9905 141.512 73.9734L142.486 72.9947V74.0951C142.486 74.1203 142.496 74.1444 142.514 74.1622C142.532 74.1801 142.556 74.1901 142.581 74.1901C142.606 74.1901 142.63 74.1801 142.648 74.1622C142.666 74.1444 142.676 74.1203 142.676 74.0951V72.9947L143.652 73.9734C143.67 73.9905 143.694 74 143.719 74C143.744 74 143.768 73.9905 143.786 73.9734C143.804 73.9553 143.813 73.9311 143.813 73.906C143.813 73.8808 143.804 73.8566 143.786 73.8385L142.81 72.8598H143.908C143.933 72.8598 143.957 72.8498 143.975 72.832C143.992 72.8141 144.002 72.79 144.002 72.7648C144.001 72.7406 143.99 72.7178 143.973 72.7012C143.955 72.6846 143.932 72.6754 143.908 72.6754Z" fill="#FB726A"/>
<path d="M174.417 95.7939C174.411 95.5642 174.383 95.3356 174.331 95.1116C174.161 94.4693 173.776 93.692 173.143 93.4982C172.49 93.2975 171.858 93.0301 171.26 92.7C171.146 90.6628 171.612 88.578 171.104 86.6035C170.915 85.8813 170.602 85.1896 170.519 84.4503C170.414 83.5305 170.664 82.5499 170.299 81.7023C170.011 81.0334 169.378 80.5621 168.697 80.315C168.017 80.068 167.284 80.0015 166.562 79.935C165.652 79.8608 162.707 79.5112 161.68 80.3265C161.609 80.3816 161.545 80.4454 161.49 80.5165C161.468 80.5478 161.447 80.5809 161.43 80.6153L161.42 80.6305C161.4 80.6701 161.382 80.7115 161.369 80.754C161.355 80.8007 161.344 80.8483 161.337 80.8966C161.337 80.9118 161.337 80.927 161.337 80.9422C161.337 80.9574 161.337 81.0087 161.337 81.0429V81.0942C161.337 81.1284 161.337 81.1626 161.337 81.1987C161.337 81.2348 161.337 81.2253 161.337 81.2386C161.35 81.4097 161.375 81.5807 161.375 81.7499C161.377 81.8341 161.369 81.9182 161.352 82.0007C161.289 82.2248 161.182 82.4341 161.037 82.6164L161.003 82.6659C160.982 82.6963 160.962 82.7248 160.943 82.7552C160.924 82.7856 160.909 82.8084 160.893 82.835C160.878 82.8616 160.863 82.8787 160.85 82.9034C160.831 82.9347 160.815 82.9671 160.8 83.0003C160.8 83.0193 160.78 83.0364 160.772 83.0554C160.748 83.1068 160.729 83.1602 160.715 83.2151C160.671 83.3802 160.667 83.5536 160.704 83.7206C160.755 83.9338 160.843 84.1364 160.963 84.3192C161.011 84.3971 161.062 84.4731 161.115 84.5492L161.248 84.7297C161.223 84.906 161.21 85.0838 161.208 85.2618C161.208 85.8569 161.343 86.4442 161.602 86.9795C161.861 87.5147 162.239 87.984 162.705 88.3519C162.78 89.1544 162.772 89.9626 162.68 90.7635C162.663 90.9307 162.643 91.0999 162.62 91.2671C162.597 91.4343 162.58 91.5446 162.557 91.6833C162.28 91.7231 161.997 91.7017 161.729 91.6206C161.605 91.5652 161.479 91.5164 161.35 91.4742C160.799 91.3355 160.236 91.8866 159.69 91.7194C159.69 91.746 159.675 91.7707 159.665 91.7954C159.551 91.7244 159.42 91.6857 159.286 91.6833C158.962 91.6681 158.699 91.4324 158.464 91.2101L157.742 90.5278C157.695 90.4861 157.653 90.4389 157.617 90.3872C157.578 90.3133 157.549 90.2348 157.53 90.1535C157.408 89.7601 157.115 89.4465 156.83 89.1481C156.776 89.0801 156.705 89.0282 156.624 88.998C156.592 88.9933 156.56 88.9933 156.529 88.998C156.51 88.9715 156.489 88.9461 156.466 88.922C156.417 88.8655 156.365 88.8122 156.309 88.7624C155.964 88.4431 155.93 88.1694 155.631 87.8122C155.37 87.4714 155.133 87.1126 154.922 86.7384C154.897 86.5389 154.863 86.3336 154.821 86.1265C154.726 85.6523 154.587 85.1879 154.406 84.7392L154.027 83.8973L153.984 83.941C153.709 83.5305 153.415 83.3063 153.152 83.3595C152.71 83.4507 152.492 84.3097 152.563 85.4328L152.714 86.5731C152.714 86.6016 152.727 86.6301 152.735 86.6586C152.708 86.7937 152.694 86.9312 152.693 87.0691C152.693 87.2287 152.841 87.3466 152.919 87.4891C153.043 87.6822 153.109 87.9073 153.108 88.1371C153.099 88.2188 153.074 88.2968 153.07 88.3766C153.081 88.5551 153.143 88.7268 153.249 88.8707L154.196 90.467L154.386 90.8015L154.397 90.8167C154.457 90.9334 154.544 91.0338 154.651 91.1094C154.688 91.5091 154.794 91.8994 154.964 92.2629C154.996 92.3351 155.032 92.4035 155.07 92.472C155.325 92.8919 155.624 93.2826 155.964 93.6369L156.415 94.1443C156.861 94.6422 157.306 95.142 157.789 95.6019C157.962 95.7865 158.171 95.9333 158.403 96.0333C158.517 96.0789 158.64 96.0936 158.762 96.0759C158.883 96.0582 158.997 96.0088 159.093 95.9326C159.093 96.1683 159.093 96.4039 159.093 96.6396C159.163 96.6439 159.231 96.667 159.29 96.7065C159.348 96.7459 159.395 96.8003 159.426 96.864C159.456 96.9278 159.469 96.9985 159.463 97.069C159.458 97.1394 159.433 97.207 159.392 97.2648C158.994 98.2891 158.593 99.3229 157.99 100.241C158.415 100.493 158.81 100.795 159.165 101.14C159.396 101.396 159.601 101.674 159.777 101.97C159.794 102.111 159.807 102.25 159.815 102.388C159.955 104.654 159.082 106.902 158.299 109.061C158.073 109.673 157.827 110.313 157.846 110.95C157.698 111.041 157.556 111.144 157.422 111.256C157.577 111.662 157.516 112.025 157.499 112.46C157.494 112.721 157.44 112.979 157.342 113.221C157.26 113.388 157.168 113.551 157.069 113.709C156.578 114.578 156.47 115.609 156.372 116.601C156.313 117.2 156.544 117.932 156.273 118.468C155.805 119.387 155.39 120.368 155.326 121.39C155.323 121.621 155.294 121.85 155.238 122.073C155.18 122.263 155.075 122.424 155.022 122.611C154.968 122.86 154.955 123.117 154.984 123.371C155.021 124.282 154.886 125.191 154.586 126.052C154.35 126.731 154.088 127.457 154.274 128.154C153.817 128.636 153.534 129.257 153.472 129.92C153.467 130.089 153.447 130.257 153.412 130.423C153.354 130.593 153.277 130.755 153.184 130.908C152.803 131.604 152.624 132.395 152.669 133.188C152.1 133.962 151.816 134.916 151.647 135.864C151.479 136.812 151.405 137.778 151.189 138.715C150.901 139.954 150.379 141.206 150.277 142.476C149.663 142.869 149.398 143.631 149.28 144.351C149.163 145.071 149.144 145.828 148.842 146.493C148.687 146.839 148.463 147.149 148.316 147.502C148.212 147.784 148.136 148.074 148.088 148.371C147.997 148.834 147.918 149.351 148.029 149.796C147.869 149.967 147.681 150.11 147.474 150.22C147.505 150.102 147.529 149.984 147.55 149.864C147.061 150.309 146.174 150.153 145.784 150.687C145.667 150.859 145.621 151.07 145.656 151.276C145.692 151.481 145.805 151.665 145.973 151.788C146.095 151.862 146.228 151.919 146.366 151.957C147.313 152.261 148.287 152.567 149.261 152.405C149.376 152.393 149.488 152.357 149.589 152.301C149.716 152.207 149.82 152.086 149.894 151.947C150.04 151.715 150.186 151.483 150.33 151.252C150.679 151.356 151.034 151.439 151.393 151.501C151.429 151.805 151.456 152.109 151.469 152.413C151.659 152.451 151.913 152.462 152.002 152.285C152.029 152.219 152.04 152.146 152.034 152.074C152.034 151.94 152.053 151.761 152.064 151.578H152.102C152.68 151.602 153.256 151.485 153.779 151.238C153.576 149.555 154.245 147.909 154.825 146.316C155.437 144.64 155.962 142.934 156.491 141.227C156.87 140.026 157.289 138.863 157.66 137.66C158.128 136.14 158.597 134.619 159.068 133.099C159.273 132.43 159.48 131.769 159.715 131.103C160.209 129.758 160.796 128.448 161.471 127.183C161.661 126.824 161.85 126.468 162.006 126.096C162.195 125.642 162.33 125.167 162.481 124.697C162.812 123.734 163.21 122.795 163.672 121.888C163.685 121.864 163.694 121.841 163.708 121.818C163.861 122.447 164.015 123.086 164.117 123.718C164.255 124.494 164.266 125.288 164.149 126.067C164.058 126.598 163.886 127.122 163.907 127.66C163.935 128.403 164.331 129.078 164.526 129.794C164.652 130.33 164.723 130.878 164.738 131.428C164.792 132.284 165.254 133.243 164.928 134.036C163.914 136.546 164.405 139.382 163.827 142.018C163.529 143.371 162.618 144.642 162.69 146.025C162.74 147.007 162.826 147.987 162.948 148.964C162.977 149.272 163.057 149.573 163.185 149.855C163.26 150.003 163.347 150.145 163.444 150.281C163.361 150.313 163.291 150.398 163.23 150.579C163.075 151.054 163.23 151.643 163.651 151.909C163.822 152.001 164.007 152.065 164.198 152.099C164.456 152.173 164.723 152.21 164.991 152.209C165.074 152.205 165.157 152.195 165.239 152.179C165.532 152.302 165.831 152.41 166.135 152.502C166.135 152.58 166.15 152.658 166.16 152.736C166.16 152.777 166.169 152.817 166.186 152.854C166.203 152.891 166.228 152.924 166.258 152.951C166.306 152.973 166.358 152.982 166.41 152.977H167.439C167.439 152.892 167.439 152.804 167.439 152.719C167.557 152.731 167.676 152.718 167.788 152.682C167.901 152.645 168.005 152.585 168.093 152.506C168.184 152.39 168.249 152.255 168.282 152.111C168.563 151.157 168.841 150.202 169.118 149.247C169.45 148.191 169.588 147.083 169.526 145.978C169.16 142.476 169.963 138.962 169.702 135.45C169.544 133.339 169.653 131.217 170.024 129.133C170.109 128.661 170.213 128.183 170.251 127.713C170.335 126.828 170.232 125.932 170.295 125.053C170.316 124.745 170.357 124.439 170.395 124.133C170.655 122.234 170.791 120.32 170.803 118.403C170.797 117.768 170.758 117.134 170.685 116.503C170.883 116.452 171.062 116.347 171.203 116.199C171.371 115.978 171.328 115.668 171.326 115.387C171.326 114.714 171.608 114.08 171.836 113.445C172.127 112.569 172.367 111.677 172.552 110.773C172.748 110.044 172.855 109.294 172.87 108.54C172.87 108.464 172.867 108.388 172.859 108.312C172.93 108.262 172.99 108.197 173.033 108.122C173.083 108.01 173.114 107.892 173.124 107.77C173.193 107.286 173.263 106.799 173.331 106.313C173.381 105.964 173.431 105.616 173.481 105.269L174.083 101.052C174.134 100.686 174.187 100.321 174.239 99.9558L174.396 98.8649C174.413 98.7357 174.432 98.6065 174.445 98.4849C174.908 97.7095 174.466 96.6757 174.417 95.7939ZM169.389 111.582C169.165 111.05 168.957 110.505 169.01 109.931H168.989C169.039 109.754 169.03 109.566 168.965 109.395C168.906 109.256 168.803 109.139 168.741 109C168.674 108.83 168.639 108.65 168.639 108.468C168.592 107.312 168.683 106.155 168.91 105.02C168.934 104.887 168.961 104.752 168.985 104.619C169.065 104.573 169.138 104.516 169.201 104.45C169.301 104.336 169.383 104.208 169.446 104.07C169.66 103.639 169.855 103.2 170.035 102.753C170.094 102.609 170.179 102.442 170.325 102.405C170.295 103.517 170.409 104.652 169.958 105.655C169.872 105.817 169.808 105.989 169.768 106.168C169.726 106.451 169.844 106.738 169.802 107.02C169.781 107.166 169.719 107.301 169.694 107.445C169.675 107.516 169.676 107.591 169.695 107.662C169.714 107.732 169.752 107.797 169.804 107.848C169.829 107.866 169.857 107.88 169.886 107.89C169.874 107.966 169.865 108.044 169.857 108.118C169.842 108.274 169.834 108.42 169.825 108.511C169.781 108.976 169.764 109.443 169.774 109.91C169.774 110.414 169.793 110.917 169.785 111.43C169.792 111.578 169.768 111.725 169.713 111.862C169.676 111.932 169.627 111.997 169.569 112.052C169.514 111.881 169.453 111.731 169.389 111.582Z" fill="url(#paint0_linear)"/>
<path d="M154.43 89.5319C155.008 89.4131 155.205 87.9857 154.869 86.3436C154.534 84.7016 153.793 83.4668 153.215 83.5856C152.636 83.7044 152.439 85.1319 152.775 86.7739C153.111 88.416 153.851 89.6508 154.43 89.5319Z" fill="#FBBEBE"/>
<path d="M163.26 150.615C163.105 151.086 163.26 151.675 163.681 151.932C163.851 152.023 164.035 152.087 164.225 152.122C164.482 152.195 164.748 152.231 165.015 152.23C165.343 152.215 165.658 152.086 165.985 152.04C166.023 152.031 166.063 152.036 166.097 152.056C166.114 152.073 166.126 152.094 166.133 152.117C166.14 152.14 166.142 152.165 166.139 152.189C166.142 152.375 166.156 152.562 166.181 152.747C166.181 152.788 166.19 152.828 166.207 152.865C166.224 152.902 166.248 152.935 166.279 152.962C166.326 152.984 166.379 152.993 166.431 152.989H167.458C167.481 152.084 167.382 151.18 167.164 150.301C167.15 150.234 167.124 150.17 167.088 150.111C167.001 150.016 166.887 149.949 166.761 149.921C166.509 149.817 166.238 149.769 165.966 149.783C165.635 149.826 165.358 150.041 165.076 150.22C164.793 150.398 164.409 150.556 164.066 150.465C163.723 150.374 163.437 150.087 163.26 150.615Z" fill="#3F3D56"/>
<path d="M148.179 149.781C147.89 150.091 147.536 150.332 147.143 150.488L146.968 150.571C146.944 150.58 146.924 150.597 146.91 150.619C146.906 150.634 146.906 150.649 146.909 150.664C146.913 150.678 146.919 150.692 146.928 150.704C147.074 150.929 147.288 151.101 147.539 151.192C147.79 151.284 148.064 151.291 148.319 151.212C148.432 151.183 148.537 151.129 148.625 151.052C148.769 150.88 148.852 150.665 148.86 150.44C148.917 150.208 148.907 149.965 148.831 149.739C148.568 149.144 148.471 149.414 148.179 149.781Z" fill="#FBBEBE"/>
<path d="M152.117 152.122C152.123 152.194 152.112 152.266 152.085 152.333C151.996 152.508 151.748 152.498 151.554 152.46C151.525 151.815 151.447 151.174 151.321 150.541C150.954 150.524 150.688 150.873 150.491 151.187L149.983 151.995C149.91 152.134 149.806 152.255 149.68 152.348C149.579 152.404 149.467 152.439 149.352 152.453C148.382 152.614 147.402 152.308 146.466 152.004C146.328 151.967 146.196 151.911 146.074 151.837C145.907 151.714 145.794 151.531 145.758 151.326C145.723 151.121 145.768 150.911 145.884 150.739C146.277 150.206 147.158 150.358 147.647 149.918C147.596 150.228 147.512 150.532 147.397 150.824C148.05 150.725 148.49 150.125 149.017 149.724C149.149 149.611 149.309 149.535 149.479 149.503C149.607 149.492 149.736 149.506 149.858 149.543C150.466 149.697 151.034 149.977 151.526 150.366C151.725 150.524 152.036 150.746 152.123 150.989C152.216 151.28 152.117 151.812 152.117 152.122Z" fill="#3F3D56"/>
<path d="M165.154 89.4199C167.316 89.4199 169.069 87.6621 169.069 85.4937C169.069 83.3253 167.316 81.5674 165.154 81.5674C162.991 81.5674 161.238 83.3253 161.238 85.4937C161.238 87.6621 162.991 89.4199 165.154 89.4199Z" fill="#FBBEBE"/>
<path d="M172.867 108.675C172.851 109.425 172.744 110.171 172.55 110.896C172.365 111.797 172.125 112.685 171.834 113.557C171.608 114.19 171.326 114.825 171.328 115.495C171.328 115.775 171.373 116.085 171.203 116.305C171.051 116.46 170.859 116.57 170.649 116.622C170.544 116.65 170.448 116.702 170.367 116.775C170.286 116.847 170.223 116.937 170.183 117.039C170.005 116.772 169.872 116.478 169.789 116.168C169.449 115.124 169.133 114.075 168.841 113.019C168.815 112.958 168.803 112.892 168.808 112.826C168.812 112.76 168.833 112.696 168.868 112.639C168.916 112.597 168.972 112.566 169.033 112.546C169.227 112.467 169.405 112.352 169.558 112.208C169.629 112.144 169.689 112.067 169.732 111.982C169.787 111.845 169.812 111.699 169.806 111.552C169.806 111.048 169.806 110.547 169.793 110.043C169.785 109.578 169.802 109.113 169.846 108.65C169.846 108.559 169.863 108.413 169.878 108.257C169.906 107.958 169.963 107.613 170.124 107.497C170.365 107.335 171.085 107.552 171.358 107.59C171.828 107.654 172.306 107.73 172.764 107.82C172.831 108.1 172.865 108.387 172.867 108.675Z" fill="#3F3D56"/>
<path d="M157.058 89.8893C156.906 90.1934 156.542 90.3397 156.262 90.5317L155.301 91.193C155.237 91.251 155.161 91.2954 155.08 91.3235C154.998 91.3516 154.911 91.3628 154.825 91.3564C154.747 91.3275 154.675 91.2831 154.615 91.226C154.554 91.1689 154.505 91.1002 154.471 91.0239C154.471 91.0188 154.471 91.0137 154.471 91.0086L154.272 90.6742L153.324 89.0817C153.219 88.939 153.158 88.7686 153.148 88.5913C153.148 88.5096 153.176 88.4336 153.184 88.3519C153.187 88.1224 153.121 87.8973 152.995 87.7058C152.919 87.5632 152.767 87.4454 152.771 87.2858C152.764 87.076 152.8 86.867 152.877 86.6719C152.976 86.4915 153.119 86.3387 153.292 86.2273C153.381 86.1626 153.472 86.1018 153.567 86.0372C153.617 86.0028 153.673 85.9771 153.732 85.9612C153.889 85.9289 154.044 86.06 154.204 86.0657C154.888 86.5256 155.151 87.396 155.689 88.0231C155.993 88.3804 156.023 88.6541 156.366 88.9733C156.421 89.0227 156.474 89.0759 156.525 89.1311C156.593 89.2052 156.65 89.2884 156.696 89.3781C156.758 89.5415 157.135 89.7335 157.058 89.8893Z" fill="#3F3D56"/>
<path d="M163.778 89.4218C164.06 90.0204 164.28 90.678 164.198 91.3355C164.182 91.5136 164.125 91.6857 164.033 91.8391C163.761 92.2591 163.188 92.3351 162.69 92.3598C162.585 92.351 162.479 92.3632 162.379 92.3959C162.279 92.4285 162.186 92.4809 162.106 92.5499C162.04 92.6469 162.007 92.7634 162.014 92.881C162.02 92.9986 162.065 93.1108 162.142 93.1998C162.302 93.3712 162.501 93.5016 162.722 93.5799C163.51 93.9277 164.361 94.2146 165.218 94.1348C165.616 94.0968 166.002 93.9809 166.399 93.922C166.83 93.8751 167.264 93.851 167.699 93.8498C168.214 93.8308 168.728 93.7794 169.241 93.7281L170.602 93.5932C170.676 93.5943 170.748 93.5679 170.805 93.5191C170.905 93.4013 170.776 93.2283 170.651 93.139C169.929 92.6031 169.01 92.2344 168.599 91.4286C168.409 91.0486 168.35 90.5963 168.21 90.1858C168.07 89.7753 167.846 89.4047 167.759 88.9866C167.713 88.6198 167.692 88.2503 167.697 87.8806C167.701 87.5078 167.566 87.1469 167.318 86.8696C167.047 86.6168 166.654 86.5522 166.287 86.537C165.381 86.4971 164.416 86.7137 163.774 87.3542C163.601 87.5271 163.454 87.7342 163.275 87.8901C163.097 88.0459 162.855 88.0915 162.972 88.2968C163.09 88.502 163.321 88.6293 163.446 88.8099C163.573 89.0047 163.683 89.2093 163.778 89.4218Z" fill="#FBBEBE"/>
<path d="M171.496 94.9501C171.257 96.4135 170.869 97.8482 170.337 99.2317C170.069 99.8565 169.841 100.498 169.654 101.151C169.508 101.74 169.537 102.371 169.402 102.962C169.235 103.698 169.069 104.435 168.934 105.176C168.708 106.308 168.618 107.463 168.665 108.616C168.665 108.798 168.7 108.977 168.767 109.146C168.83 109.283 168.93 109.401 168.989 109.541C169.033 109.665 169.051 109.796 169.042 109.927C169.033 110.058 168.997 110.185 168.936 110.302C168.839 110.519 168.707 110.719 168.546 110.895C166.779 111.423 164.89 111.25 163.05 111.362C161.354 111.465 159.639 111.814 157.967 111.524C157.778 110.763 158.094 109.967 158.365 109.226C159.152 107.073 160.022 104.83 159.881 102.575C159.867 102.311 159.837 102.049 159.792 101.79C159.517 100.191 159.817 98.5362 160.296 96.9873C160.594 96.0219 160.581 94.9938 160.512 93.9885C160.479 93.6621 160.474 93.3332 160.499 93.006C160.526 92.6718 160.65 92.3529 160.855 92.0881C160.855 92.0748 160.872 92.0615 160.882 92.0482C160.891 92.0349 160.965 92.0368 161.024 92.0482C161.039 92.0545 161.055 92.0578 161.071 92.0578C161.088 92.0578 161.104 92.0545 161.119 92.0482L161.14 92.0349C161.148 92.0291 161.157 92.0261 161.167 92.0261C161.177 92.0261 161.187 92.0291 161.195 92.0349C161.238 92.0615 161.263 92.1527 161.358 92.1698C161.498 92.191 161.639 92.2044 161.78 92.2097C161.95 92.2148 162.119 92.239 162.284 92.2819H162.307C162.553 92.3236 162.806 92.302 163.042 92.2192C163.199 92.1799 163.351 92.1212 163.493 92.0444C163.535 91.9988 163.797 91.9569 163.85 91.9246C164.022 91.8201 163.984 91.3298 164.02 91.1284C164.04 90.9263 164.088 90.7281 164.162 90.5392C164.249 90.3999 164.368 90.2839 164.509 90.2014C164.651 90.1189 164.81 90.0724 164.973 90.066C165.3 90.0583 165.626 90.0876 165.946 90.1535C166.652 90.2542 167.376 90.2371 168.07 90.4005C168.419 90.4822 168.8 90.6058 169.12 90.4461C169.207 90.467 169.22 90.5431 169.22 90.6362C169.212 90.7246 169.194 90.8119 169.167 90.8965C169.046 91.421 169.457 91.9037 169.836 92.2838C169.996 92.463 170.185 92.6139 170.395 92.7304C170.585 92.8178 170.774 92.8539 170.964 92.949C171.117 93.0311 171.248 93.1507 171.343 93.2967C171.452 93.4642 171.526 93.6525 171.559 93.8498C171.6 94.2175 171.578 94.5894 171.496 94.9501Z" fill="#3F3D56"/>
<path opacity="0.1" d="M171.496 94.9501C171.257 96.4135 170.869 97.8483 170.337 99.2318C170.069 99.8565 169.841 100.498 169.654 101.151C169.508 101.74 169.537 102.371 169.402 102.962C169.235 103.698 169.069 104.435 168.934 105.176C168.894 105.199 168.853 105.22 168.811 105.239C168.575 105.352 168.325 105.432 168.068 105.478C167.606 105.534 167.138 105.519 166.681 105.433L163.977 105.07C162.896 104.923 161.746 104.747 160.944 104.013C160.499 103.61 160.207 103.078 159.887 102.565C159.872 102.302 159.843 102.04 159.798 101.78C159.523 100.182 159.823 98.5267 160.302 96.9779C160.6 96.0125 160.586 94.9843 160.518 93.979C160.484 93.6526 160.48 93.3237 160.505 92.9965C160.532 92.6623 160.656 92.3434 160.861 92.0786C160.916 92.0623 160.973 92.0496 161.03 92.0406C161.068 92.0329 161.107 92.0278 161.145 92.0254H161.2C161.264 92.0256 161.328 92.0333 161.39 92.0482C161.519 92.0894 161.645 92.1383 161.769 92.1945H161.792C161.954 92.2482 162.125 92.2726 162.296 92.2667C162.546 92.2667 162.804 92.2268 163.054 92.2097C163.363 92.1613 163.679 92.2182 163.952 92.3713C164.128 92.5133 164.295 92.6662 164.452 92.8293C164.642 92.9786 164.855 93.0949 165.083 93.1732C166.715 93.7976 168.524 93.7595 170.128 93.0668C170.282 92.979 170.457 92.9343 170.634 92.9376C170.765 92.9633 170.889 93.0164 170.998 93.0934C171.112 93.1599 171.223 93.2246 171.339 93.2835C171.448 93.4509 171.522 93.6392 171.555 93.8365C171.599 94.2083 171.579 94.5849 171.496 94.9501Z" fill="black"/>
<path d="M173.147 93.692C172.392 93.4609 171.667 93.142 170.987 92.7418C170.877 92.6653 170.753 92.6123 170.623 92.586C170.445 92.5839 170.27 92.6284 170.115 92.7152C168.512 93.4078 166.703 93.446 165.072 92.8217C164.844 92.7426 164.631 92.6263 164.441 92.4777C164.283 92.3151 164.116 92.1622 163.941 92.0197C163.317 91.6149 162.455 92.09 161.758 91.8296C161.634 91.7742 161.507 91.7254 161.378 91.6833C160.827 91.5446 160.266 92.0957 159.724 91.9285C159.522 92.4781 159.373 93.0457 159.279 93.6236C159.202 94.2873 159.161 94.9547 159.156 95.6229C159.156 96.0238 159.137 96.4248 159.156 96.8258C159.222 96.8368 159.286 96.8615 159.343 96.8985C159.4 96.9355 159.448 96.9838 159.485 97.0406C159.51 97.1068 159.52 97.1776 159.515 97.2482C159.51 97.3188 159.489 97.3874 159.455 97.4491C159.059 98.4697 158.657 99.5016 158.056 100.416C158.48 100.669 158.873 100.97 159.228 101.313C159.891 102.016 160.217 103.002 160.933 103.652C161.74 104.384 162.891 104.562 163.965 104.707L166.67 105.07C167.128 105.156 167.596 105.172 168.059 105.117C168.315 105.07 168.565 104.989 168.8 104.876C168.953 104.812 169.093 104.719 169.213 104.602C169.313 104.489 169.395 104.36 169.457 104.222C169.671 103.793 169.867 103.354 170.047 102.909C170.109 102.751 170.204 102.567 170.375 102.554C171.379 101.645 172.326 100.714 173.331 99.8057C173.734 99.4702 174.097 99.0874 174.409 98.6654C174.908 97.9262 174.455 96.879 174.409 95.9858C174.404 95.7574 174.375 95.5301 174.324 95.3074C174.161 94.6593 173.778 93.884 173.147 93.692Z" fill="#FB726A"/>
<path opacity="0.1" d="M157.058 89.8894C156.906 90.1934 156.542 90.3397 156.262 90.5317L155.301 91.193C155.237 91.251 155.161 91.2954 155.08 91.3235C154.998 91.3516 154.911 91.3628 154.825 91.3564C154.747 91.3275 154.675 91.2832 154.615 91.226C154.554 91.1689 154.505 91.1002 154.471 91.0239C154.471 90.9802 154.471 90.9327 154.471 90.8871C154.463 90.7332 154.484 90.5793 154.531 90.4329C154.626 90.218 154.771 90.0299 154.956 89.8856C155.313 89.5468 155.737 89.2877 156.201 89.1254C156.273 89.0972 156.352 89.0893 156.428 89.1026C156.458 89.1103 156.486 89.1225 156.512 89.1387C156.58 89.2129 156.637 89.296 156.682 89.3858C156.758 89.5416 157.135 89.7335 157.058 89.8894Z" fill="black"/>
<path d="M159.32 91.8923C158.998 91.8771 158.735 91.6434 158.5 91.421L157.782 90.7521C157.734 90.7113 157.691 90.664 157.657 90.6115C157.618 90.5376 157.588 90.459 157.569 90.3777C157.417 89.9938 157.178 89.6504 156.872 89.3743C156.819 89.3062 156.747 89.2548 156.665 89.2261C156.588 89.2118 156.509 89.2197 156.436 89.2489C155.972 89.4109 155.548 89.67 155.191 90.009C155.007 90.1535 154.861 90.3415 154.767 90.5563C154.719 90.7028 154.698 90.8567 154.706 91.0105C154.71 91.5127 154.823 92.0079 155.036 92.4625C155.068 92.5328 155.104 92.6031 155.142 92.6715C155.395 93.0906 155.693 93.4801 156.032 93.8327L156.483 94.3382C156.927 94.8361 157.37 95.334 157.852 95.792C158.024 95.9766 158.233 96.1229 158.466 96.2215C158.582 96.2692 158.71 96.2838 158.834 96.2637C158.959 96.2436 159.075 96.1895 159.171 96.1075C159.261 96.0021 159.33 95.8792 159.372 95.7464C159.663 94.9862 159.94 94.1956 159.957 93.3766C159.961 93.0485 159.947 92.7205 159.915 92.3941C159.887 92.0482 159.643 91.9132 159.32 91.8923Z" fill="#FB726A"/>
<path d="M170.805 118.498C170.794 120.41 170.658 122.319 170.399 124.213C170.361 124.519 170.32 124.825 170.299 125.131C170.236 126.018 170.339 126.909 170.255 127.791C170.212 128.268 170.113 128.741 170.03 129.207C169.659 131.285 169.551 133.402 169.707 135.507C169.969 139.009 169.167 142.514 169.531 146.007C169.575 146.686 169.538 147.368 169.419 148.038C169.352 148.454 169.253 148.864 169.126 149.266C168.849 150.217 168.571 151.167 168.292 152.116C168.259 152.261 168.194 152.396 168.102 152.512C168.006 152.595 167.892 152.658 167.77 152.694C167.647 152.73 167.518 152.74 167.392 152.723C166.298 152.688 165.269 152.215 164.276 151.753C164.162 151.708 164.056 151.644 163.963 151.563C163.757 151.349 163.774 151.01 163.683 150.727C163.592 150.444 163.346 150.178 163.205 149.887C163.09 149.612 163.02 149.32 162.999 149.022C162.872 148.049 162.787 147.073 162.741 146.092C162.669 144.712 163.579 143.443 163.878 142.101C164.447 139.463 163.965 136.636 164.975 134.133C165.294 133.342 164.831 132.384 164.786 131.533C164.77 130.984 164.698 130.438 164.574 129.902C164.384 129.188 163.984 128.515 163.956 127.774C163.935 127.238 164.107 126.715 164.197 126.187C164.315 125.41 164.304 124.618 164.164 123.844C164.064 123.205 163.91 122.567 163.757 121.944L163.723 122.014C163.261 122.919 162.864 123.856 162.535 124.817C162.383 125.283 162.25 125.758 162.061 126.21C161.905 126.59 161.714 126.938 161.526 127.295C160.853 128.555 160.268 129.86 159.773 131.2C159.538 131.858 159.332 132.531 159.127 133.19L157.723 137.751C157.344 138.95 156.929 140.11 156.557 141.307C156.032 143.017 155.508 144.712 154.897 146.385C154.329 147.972 153.652 149.615 153.855 151.292C153.332 151.538 152.759 151.655 152.182 151.632C151.205 151.545 150.247 151.312 149.339 150.94C148.977 150.805 148.602 150.653 148.357 150.355C147.937 149.84 148.041 149.085 148.168 148.43C148.216 148.134 148.292 147.844 148.395 147.563C148.539 147.213 148.774 146.904 148.922 146.558C149.22 145.894 149.239 145.144 149.356 144.423C149.474 143.703 149.735 142.943 150.349 142.552C150.453 141.286 150.973 140.037 151.259 138.8C151.475 137.863 151.547 136.9 151.717 135.95C151.888 134.999 152.163 134.049 152.735 133.279C152.69 132.486 152.868 131.696 153.25 130.999C153.343 130.846 153.418 130.684 153.476 130.514C153.511 130.349 153.532 130.181 153.537 130.013C153.599 129.352 153.881 128.732 154.336 128.251C154.147 127.557 154.41 126.833 154.647 126.161C154.945 125.302 155.08 124.395 155.045 123.487C155.016 123.233 155.028 122.976 155.081 122.726C155.134 122.536 155.238 122.375 155.299 122.192C155.353 121.969 155.382 121.74 155.384 121.51C155.458 120.482 155.873 119.513 156.332 118.595C156.605 118.059 156.374 117.331 156.43 116.734C156.529 115.742 156.637 114.716 157.128 113.852C157.219 113.688 157.317 113.532 157.399 113.363C157.498 113.122 157.551 112.864 157.556 112.603C157.573 112.168 157.634 111.807 157.478 111.402C158.492 110.556 159.876 110.319 161.195 110.262C162.514 110.205 163.848 110.324 165.138 110.043C165.517 109.958 165.896 109.84 166.296 109.783C167.204 109.65 168.125 109.857 169.021 110.062C168.959 110.632 169.167 111.18 169.4 111.71C170.31 113.858 170.788 116.165 170.805 118.498Z" fill="#33313F"/>
<path opacity="0.1" d="M166.342 118.933L164.164 123.844C164.064 123.205 163.91 122.567 163.757 121.944L163.723 122.014V121.911L164.909 119.294L166.342 118.933Z" fill="black"/>
<path opacity="0.1" d="M172.867 108.675C172.741 108.769 172.591 108.825 172.434 108.836C172.194 108.845 171.955 108.812 171.726 108.739L170.02 108.312C169.967 108.299 169.915 108.28 169.865 108.257C169.893 107.958 169.95 107.613 170.111 107.497C170.352 107.335 171.072 107.552 171.345 107.59C171.815 107.654 172.292 107.73 172.751 107.82C172.822 108.099 172.861 108.386 172.867 108.675Z" fill="black"/>
<path d="M174.309 97.3674C174.345 97.5252 174.396 97.681 174.426 97.8406C174.477 98.2323 174.464 98.6297 174.386 99.017L174.231 100.104L174.076 101.197L173.475 105.402L173.327 106.444L173.119 107.898C173.109 108.019 173.078 108.137 173.028 108.247C172.966 108.351 172.879 108.437 172.775 108.498C172.672 108.56 172.555 108.594 172.434 108.599C172.194 108.606 171.955 108.574 171.726 108.502L170.02 108.072C169.945 108.059 169.874 108.03 169.812 107.987C169.76 107.936 169.722 107.872 169.703 107.801C169.683 107.731 169.683 107.657 169.702 107.586C169.726 107.441 169.789 107.307 169.81 107.162C169.851 106.881 169.734 106.592 169.776 106.313C169.817 106.135 169.88 105.963 169.965 105.801C170.534 104.541 170.204 103.071 170.397 101.702C170.571 100.625 171.025 99.6134 171.712 98.768C172.137 98.2344 172.624 97.7545 173.164 97.3389C173.376 97.1736 173.714 96.8334 173.981 96.7688C174.324 96.6966 174.252 97.128 174.309 97.3674Z" fill="#FB726A"/>
<path d="M161.401 80.9973C161.276 81.3964 161.471 81.8354 161.382 82.2421C161.286 82.6906 160.865 83.0022 160.745 83.4526C160.556 84.1387 161.136 84.7639 161.56 85.334C163.133 87.4511 162.927 90.3815 162.389 92.9642C161.955 95.0362 161.357 97.0699 160.598 99.0455C160.361 99.6593 160.099 100.283 159.633 100.743C160.505 100.492 161.431 100.239 162.305 100.482C163.412 100.79 164.367 101.868 165.489 101.622C166.164 101.472 166.637 100.872 167.244 100.539C168.381 99.9254 169.751 100.311 171.019 100.509C171.292 100.573 171.578 100.559 171.843 100.467C172.046 100.358 172.218 100.199 172.343 100.005C172.909 99.2772 173.248 98.398 173.318 97.4776C173.347 97.0194 173.28 96.5599 173.12 96.1298C172.959 95.6996 172.71 95.3085 172.387 94.9824C172.118 94.7277 171.796 94.5225 171.589 94.2222C171.388 93.8716 171.281 93.475 171.277 93.0706C171.127 90.9801 171.635 88.846 171.112 86.8239C170.922 86.1037 170.613 85.4138 170.53 84.6765C170.426 83.7586 170.674 82.7761 170.31 81.9361C170.024 81.2691 169.393 80.7959 168.712 80.5526C168.032 80.3093 167.304 80.2409 166.582 80.1725C165.544 80.0851 161.835 79.6385 161.401 80.9973Z" fill="#33313F"/>
<g opacity="0.1">
<path opacity="0.1" d="M162.388 92.9642C161.958 95.0277 161.362 97.0531 160.607 99.0208C160.738 98.7604 160.848 98.4868 160.952 98.215C161.712 96.2397 162.311 94.206 162.743 92.1337C163.283 89.5492 163.489 86.6225 161.917 84.5036C161.538 83.9981 161.051 83.4507 161.068 82.8578C160.927 83.0371 160.819 83.2389 160.745 83.4545C160.556 84.1406 161.136 84.7658 161.56 85.3359C163.133 87.4511 162.927 90.3815 162.388 92.9642Z" fill="black"/>
<path opacity="0.1" d="M161.405 82.0501C161.557 81.8607 161.67 81.6431 161.738 81.4097C161.768 81.1274 161.76 80.8425 161.716 80.5621C161.57 80.6723 161.46 80.8239 161.401 80.9973C161.289 81.3337 161.418 81.6986 161.405 82.0501Z" fill="black"/>
<path opacity="0.1" d="M172.7 99.169C172.574 99.3621 172.402 99.5203 172.199 99.6289C171.935 99.7228 171.648 99.7373 171.375 99.6707C170.107 99.4807 168.722 99.0892 167.6 99.703C166.992 100.034 166.52 100.634 165.843 100.786C164.723 101.037 163.768 99.9596 162.661 99.646C161.877 99.4275 161.051 99.608 160.26 99.8361C160.103 100.172 159.891 100.479 159.633 100.744C160.505 100.494 161.431 100.241 162.305 100.484C163.412 100.792 164.367 101.87 165.489 101.624C166.164 101.474 166.637 100.874 167.244 100.541C168.381 99.9273 169.751 100.313 171.019 100.511C171.292 100.575 171.578 100.561 171.843 100.469C172.046 100.36 172.218 100.201 172.343 100.007C172.687 99.5528 172.952 99.0441 173.128 98.502C173.001 98.7343 172.858 98.9572 172.7 99.169Z" fill="black"/>
</g>
</g>
<defs>
<linearGradient id="paint0_linear" x1="145.657" y1="116.385" x2="174.652" y2="116.385" gradientUnits="userSpaceOnUse">
<stop stop-color="#808080" stop-opacity="0.25"/>
<stop offset="0.54" stop-color="#808080" stop-opacity="0.12"/>
<stop offset="1" stop-color="#808080" stop-opacity="0.1"/>
</linearGradient>
<clipPath id="clip0">
<rect width="221" height="153" fill="white"/>
</clipPath>
</defs>
</svg>
