<svg width="254" height="148" viewBox="0 0 254 148" fill="none" xmlns="http://www.w3.org/2000/svg">
<g opacity="0.5">
<path opacity="0.5" d="M0 0V7.46738V148H213.612V7.46738V0H0Z" fill="url(#paint0_linear)"/>
</g>
<path d="M211.348 9.21005H3.1687V145.369H211.348V9.21005Z" fill="white"/>
<path d="M211.348 2.73311H3.1687V12.7506H211.348V2.73311Z" fill="#F5F5F5"/>
<path d="M11.0903 10.0175C12.4325 10.0175 13.5206 8.93039 13.5206 7.58937C13.5206 6.24835 12.4325 5.16124 11.0903 5.16124C9.74811 5.16124 8.66003 6.24835 8.66003 7.58937C8.66003 8.93039 9.74811 10.0175 11.0903 10.0175Z" fill="#FF5252"/>
<path d="M17.7765 10.0175C19.1187 10.0175 20.2068 8.93039 20.2068 7.58937C20.2068 6.24835 19.1187 5.16124 17.7765 5.16124C16.4343 5.16124 15.3462 6.24835 15.3462 7.58937C15.3462 8.93039 16.4343 10.0175 17.7765 10.0175Z" fill="#FFFF00"/>
<path d="M24.4598 10.0175C25.802 10.0175 26.8901 8.93039 26.8901 7.58937C26.8901 6.24835 25.802 5.16124 24.4598 5.16124C23.1176 5.16124 22.0295 6.24835 22.0295 7.58937C22.0295 8.93039 23.1176 10.0175 24.4598 10.0175Z" fill="#92B5F9"/>
<path opacity="0.5" d="M126.023 45.6147H87.7374V49.7129H126.023V45.6147Z" fill="#FB726A"/>
<path d="M102.02 63.2215H60.0886V67.3197H102.02V63.2215Z" fill="#E0E0E0"/>
<path d="M111.744 67.3226H153.675V63.2244L111.744 63.2244V67.3226Z" fill="#92B5F9"/>
<path d="M153.521 72.025H59.9344V76.1232H153.521V72.025Z" fill="#E0E0E0"/>
<path d="M153.521 80.8313H59.9344V84.9295H153.521V80.8313Z" fill="#E0E0E0"/>
<path d="M126.177 99.6523H87.2839V107.242H126.177V99.6523Z" fill="url(#paint1_linear)"/>
<path d="M125.872 100.344H87.5863V106.553H125.872V100.344Z" fill="#FB726A"/>
<g opacity="0.5">
<path opacity="0.5" d="M210.976 116.184C231.045 116.184 247.314 99.9298 247.314 79.8786C247.314 59.8275 231.045 43.5728 210.976 43.5728C190.907 43.5728 174.638 59.8275 174.638 79.8786C174.638 99.9298 190.907 116.184 210.976 116.184Z" fill="url(#paint2_linear)"/>
</g>
<path d="M210.976 113.861C229.76 113.861 244.988 98.6465 244.988 79.8786C244.988 61.1107 229.76 45.8964 210.976 45.8964C192.191 45.8964 176.963 61.1107 176.963 79.8786C176.963 98.6465 192.191 113.861 210.976 113.861Z" fill="#F5F5F5"/>
<g opacity="0.5">
<path opacity="0.5" d="M215.717 71.7258L215.063 71.4935L215.028 71.5515H214.99V69.7798C214.991 69.5659 214.974 69.3522 214.941 69.1408C215.997 68.3645 216.804 67.2991 217.267 66.0737C218.179 64.8914 218.742 63.4774 218.891 61.9919C219.04 60.5064 218.77 59.0088 218.11 57.669C217.451 56.3293 216.429 55.2008 215.161 54.4117C213.892 53.6225 212.428 53.2043 210.934 53.2043C209.439 53.2043 207.975 53.6225 206.707 54.4117C205.438 55.2008 204.416 56.3293 203.757 57.669C203.098 59.0088 202.827 60.5064 202.976 61.9919C203.125 63.4774 203.688 64.8914 204.601 66.0737C205.063 67.2991 205.871 68.3645 206.926 69.1408C206.893 69.3522 206.877 69.5659 206.877 69.7798V71.72C203.377 72.6833 200.291 74.7682 198.093 77.6542C195.894 80.5403 194.705 84.0677 194.708 87.6946V102.217H227.848V87.6946C227.852 84.0737 226.668 80.5513 224.477 77.667C222.286 74.7828 219.209 72.6958 215.717 71.7258Z" fill="url(#paint3_linear)"/>
</g>
<path d="M211.267 71.3657C213.362 71.3657 215.436 71.778 217.372 72.579C219.307 73.38 221.066 74.5542 222.548 76.0343C224.029 77.5144 225.204 79.2716 226.006 81.2055C226.808 83.1394 227.22 85.2121 227.22 87.3054V101.293H195.313V87.3054C195.313 83.0779 196.994 79.0236 199.986 76.0343C202.977 73.045 207.035 71.3657 211.267 71.3657V71.3657Z" fill="#FB726A"/>
<path d="M214.848 70.0674C214.848 67.9115 213.099 66.1638 210.941 66.1638C208.783 66.1638 207.034 67.9115 207.034 70.0674V72.0192C207.034 74.1751 208.783 75.9228 210.941 75.9228C213.099 75.9228 214.848 74.1751 214.848 72.0192V70.0674Z" fill="#FDA57D"/>
<path opacity="0.05" d="M204.324 73.0938L206.944 78.7053L209.548 76.1028L206.944 72.1179L204.324 73.0938Z" fill="black"/>
<path d="M204.415 72.8208L207.031 78.4322L209.647 75.8182L207.031 71.8333L205.833 72.1992C205.716 72.2348 205.602 72.2775 205.49 72.327L204.415 72.8208Z" fill="white"/>
<path opacity="0.05" d="M217.569 72.8208L214.938 78.7052L212.333 76.1028L215.011 71.9059L217.569 72.8208Z" fill="black"/>
<path d="M217.479 72.5478L214.862 78.4351L212.246 75.8211L214.923 71.6241L215.415 71.7636C215.944 71.9155 216.464 72.1008 216.97 72.3183L217.479 72.5478Z" fill="white"/>
<path d="M209.444 75.6236L210.9 77.7468L212.438 75.6236H209.444Z" fill="#FDA57D"/>
<path opacity="0.1" d="M201.31 83.3146C201.31 83.3146 199.758 98.7373 200.761 99.7423Z" fill="black"/>
<path opacity="0.1" d="M220.49 83.3146C220.49 83.3146 222.043 98.7373 221.04 99.7423Z" fill="black"/>
<path opacity="0.05" d="M210.941 70.898C212.326 70.9019 213.676 70.4621 214.793 69.6433C214.646 68.7264 214.177 67.8918 213.47 67.2892C212.763 66.6866 211.864 66.3556 210.935 66.3554V66.3554C210.007 66.3569 209.109 66.6886 208.404 67.2911C207.698 67.8936 207.23 68.7274 207.083 69.6433C208.202 70.4633 209.554 70.9031 210.941 70.898V70.898Z" fill="black"/>
<path d="M210.941 69.4923C215.192 69.4923 218.639 66.0489 218.639 61.8012C218.639 57.5536 215.192 54.1102 210.941 54.1102C206.689 54.1102 203.243 57.5536 203.243 61.8012C203.243 66.0489 206.689 69.4923 210.941 69.4923Z" fill="black"/>
<path d="M210.941 70.7179C214.537 70.7179 217.453 67.8051 217.453 64.2119C217.453 60.6188 214.537 57.7059 210.941 57.7059C207.345 57.7059 204.429 60.6188 204.429 64.2119C204.429 67.8051 207.345 70.7179 210.941 70.7179Z" fill="#FDA57D"/>
<path opacity="0.05" d="M205.694 57.7611L207.339 59.7681C207.339 59.7681 214.554 60.4071 215.377 58.7632C216.2 57.1192 210.627 55.9342 210.627 55.9342L205.694 57.7611Z" fill="black"/>
<path d="M205.694 57.5781L207.339 59.5851C207.339 59.5851 214.554 60.2241 215.377 58.5802C216.2 56.9363 210.627 55.7512 210.627 55.7512L205.694 57.5781Z" fill="black"/>
<path d="M204.414 64.607C204.666 64.607 204.871 64.2389 204.871 63.785C204.871 63.331 204.666 62.963 204.414 62.963C204.162 62.963 203.958 63.331 203.958 63.785C203.958 64.2389 204.162 64.607 204.414 64.607Z" fill="#FDA57D"/>
<path d="M217.476 64.607C217.728 64.607 217.932 64.2389 217.932 63.785C217.932 63.331 217.728 62.963 217.476 62.963C217.224 62.963 217.02 63.331 217.02 63.785C217.02 64.2389 217.224 64.607 217.476 64.607Z" fill="#FDA57D"/>
<g opacity="0.5">
<path opacity="0.5" d="M254 60.4391H244.968V51.4178H239.776V60.4391H230.744V65.6293H239.776V74.6506H244.968V65.6293H254V60.4391Z" fill="url(#paint4_linear)"/>
</g>
<path d="M244.578 53.1575H240.166V72.9079H244.578V53.1575Z" fill="#92B5F9"/>
<path d="M252.256 65.2401V60.8312H232.488V65.2401H252.256Z" fill="#92B5F9"/>
<defs>
<linearGradient id="paint0_linear" x1="106.805" y1="148" x2="106.805" y2="0" gradientUnits="userSpaceOnUse">
<stop stop-color="#808080" stop-opacity="0.25"/>
<stop offset="0.54" stop-color="#808080" stop-opacity="0.12"/>
<stop offset="1" stop-color="#808080" stop-opacity="0.1"/>
</linearGradient>
<linearGradient id="paint1_linear" x1="14366.6" y1="2901.88" x2="14366.6" y2="2703.57" gradientUnits="userSpaceOnUse">
<stop stop-color="#808080" stop-opacity="0.25"/>
<stop offset="0.54" stop-color="#808080" stop-opacity="0.12"/>
<stop offset="1" stop-color="#808080" stop-opacity="0.1"/>
</linearGradient>
<linearGradient id="paint2_linear" x1="52918.6" y1="29089.7" x2="52918.6" y2="10936.8" gradientUnits="userSpaceOnUse">
<stop stop-color="#808080" stop-opacity="0.25"/>
<stop offset="0.54" stop-color="#808080" stop-opacity="0.12"/>
<stop offset="1" stop-color="#808080" stop-opacity="0.1"/>
</linearGradient>
<linearGradient id="paint3_linear" x1="27796.3" y1="22733.8" x2="31574.3" y2="22733.8" gradientUnits="userSpaceOnUse">
<stop stop-color="#808080" stop-opacity="0.25"/>
<stop offset="0.54" stop-color="#808080" stop-opacity="0.12"/>
<stop offset="1" stop-color="#808080" stop-opacity="0.1"/>
</linearGradient>
<linearGradient id="paint4_linear" x1="19620.5" y1="6022.72" x2="19620.5" y2="4164.09" gradientUnits="userSpaceOnUse">
<stop stop-color="#808080" stop-opacity="0.25"/>
<stop offset="0.54" stop-color="#808080" stop-opacity="0.12"/>
<stop offset="1" stop-color="#808080" stop-opacity="0.1"/>
</linearGradient>
</defs>
</svg>
